<svg width="90" height="29" viewBox="0 0 90 29" fill="none" xmlns="http://www.w3.org/2000/svg">
<path d="M89.44 18.16H77.29V0.25H89.44L86.31 9.21L89.44 18.16Z" fill="#163844" stroke="#F7EFCD" stroke-width="0.5" stroke-linejoin="round"/>
<path d="M77.29 0.25L82.13 4.11C82.56 4.55 82.4 5.47 81.88 5.61L77.29 6.92V0.25Z" fill="#102F3A" stroke="#F7EFCD" stroke-width="0.5" stroke-linejoin="round"/>
<path d="M0.25 18.16H12.4V0.25H0.25L3.38 9.21L0.25 18.16Z" fill="#163844" stroke="#F7EFCD" stroke-width="0.5" stroke-linejoin="round"/>
<path d="M12.4 0.25L7.56 4.11C7.13 4.55 7.29 5.47 7.81 5.61L12.4 6.92V0.25Z" fill="#102F3A" stroke="#F7EFCD" stroke-width="0.5" stroke-linejoin="round"/>
<path d="M80.69 24.44C56.8 29.38 32.92 29.38 9.03 24.44C8.03 24.23 7.31 23.34 7.31 22.32V5.42999C32.34 10.85 57.37 10.85 82.41 5.42999V22.32C82.41 23.34 81.69 24.23 80.69 24.44Z" fill="url(#paint0_linear_1_111)" stroke="#F7EFCD" stroke-width="0.5" stroke-linejoin="round"/>
<defs>
<linearGradient id="paint0_linear_1_111" x1="4.08" y1="16.78" x2="85.71" y2="16.78" gradientUnits="userSpaceOnUse">
<stop stop-color="#14323D"/>
<stop offset="0.07" stop-color="#1A3D4B"/>
<stop offset="0.19" stop-color="#214B5D"/>
<stop offset="0.32" stop-color="#255467"/>
<stop offset="0.47" stop-color="#27576B"/>
<stop offset="0.63" stop-color="#255366"/>
<stop offset="0.79" stop-color="#20495A"/>
<stop offset="0.95" stop-color="#173845"/>
<stop offset="1" stop-color="#14323D"/>
</linearGradient>
</defs>
</svg>
