<?xml version="1.0" encoding="UTF-8"?>
<svg id="Box_Info" xmlns="http://www.w3.org/2000/svg" version="1.1" viewBox="0 0 17.97 19.62">
  <!-- Generator: Adobe Illustrator 29.5.1, SVG Export Plug-In . SVG Version: 2.1.0 Build 141)  -->
  <defs>
    <style>
      .st0 {
        fill: #811010;
      }
    </style>
  </defs>
  <path class="st0" d="M15.21,16.13c.15.15,2.47-.83,2.73.69.41,2.46-3.35,2.91-5.06,2.78-.96-.07-1.91-.5-2.75-.59-1.4-.14-3.31.25-4.87.16-1.11-.06-2.91-.3-3.88-.83-2.49-1.37-1.3-3.65,1.22-2.51.24-1.14.54-2.25.62-3.41.16-2.7.05-6.11-.35-8.77-.09-.57-.7-2.19-.37-2.51C3.39.22,8.61-.07,9.98.01c1.01.06,5.82.91,6.31,1.59.33.46-.35,2.52-.45,3.22-.52,3.67-.91,7.61-.63,11.3ZM13.69.93C10.22.33,6.32.03,2.97,1.23c-.22.34.21.75.31,1.07,1.12,3.66.58,7.93.53,11.7.29,0,1.6.08,1.68-.25v-7.27s-.39-5.23-.39-5.23l.69-.31c-.25.67.12,1.48.16,2.2.19,3.49-.05,7.23-.16,10.72h1.07s.33-12.66.33-12.66c.38-.64,2.38-.6,3.08-.56.93.05,1.98.38,2.89.45.17.01.57.11.53-.15ZM15.06,9.29c.07-2.36.62-4.66.91-6.99-.24.08-.4.29-.45.54-.34,1.64-.22,3.65-.61,5.31l.15,1.14ZM14.6,14.6c-.11-1.28.36-2.53.08-3.8-.17,1.19-.13,2.42-.35,3.61-.05.29.01.18.27.19ZM14.91,14.91c-3.89-.77-7.92-.76-11.85-.46l.29.21-.42,1.97,1.34.54.46-2.73.45.08c-.11.77-.45,1.62-.52,2.39-.05.59.49.57.63.16s.36-2.58.58-2.64l8.01.49.23.22.02,1.27c.44.58.26-1.3.31-1.36.09-.09.5.14.44-.16ZM.64,16.86l-.02-.89c-1.82,1.48,2.76,2.69,3.5,2.49.3-.08.66-.65,1.06-.67.04-.26-.37-.16-.52-.14-.72.12-1.43.57-2.22.44l.36-.32,1.16-.44c-1.1-.41-2.22.08-3.32-.48ZM17.64,17.49c.14-.93-.44-1.25-1.28-1.22l-7.99,1.98c1.66.26,7.68-2.27,8.82-1.6l.45.84Z"/>
</svg>