<?xml version="1.0" encoding="UTF-8"?>
<svg id="Box_Info" xmlns="http://www.w3.org/2000/svg" version="1.1" viewBox="0 0 21.28 18.33">
  <!-- Generator: Adobe Illustrator 29.5.1, SVG Export Plug-In . SVG Version: 2.1.0 Build 141)  -->
  <defs>
    <style>
      .st0 {
        fill: #256187;
      }
    </style>
  </defs>
  <path class="st0" d="M.46,6.64c.06-2.91,3.66-4.22,6.07-4.79.38-.09,1.47-.14,1.68-.29.14-.1.16-.44.3-.61.84-1.09,2.67-1.25,3.71-.36.34.3.51.97.58,1.02.11.08,1.33.17,1.65.25,2.4.55,6,1.9,6.07,4.79H.46ZM11.7,1.47c-.22-1.08-2.01-.99-2.28,0h2.28Z"/>
  <path class="st0" d="M5.62,14.54c.08.4.49.36.61.46.05.04.1.11.15.15.18.14.37.23.46.3.05.04.09.11.15.15.05.04.09.11.15.15.19.14.35.22.46.3.05.04.09.11.15.15.05.04.09.11.15.15.18.12.11.15.46.3.04.02.09.13.15.15.36.71-.22,1.04-.68,1.52l-3.35-2.74c-.17-.37.6-1.2.89-1.19.1,0,.18.1.26.12ZM7.9,16.97c-.93-.16-.2.66,0,.45v-.45Z"/>
  <path class="st0" d="M5.62,14.54c-.03-1.53.12-3.07-.22-4.57-.18-.79-1.06-1.86.59-1.66,1.54.19.68,2.66,1.23,3.64.4.71,2.95,1.1,3.38.58.65-.79-.69-3.26.29-3.59.84-.29.66,1.08.89,1.65.52-.4.88-2.3,1.33-2.48.34-.14,1.63-.24,1.79.13.1.24-.84.6-.89.93l-.17.66c.25.25,2.15-1.34,2.58-1.45.39-.1,1.07,0,1.03.47-.02.25-3.41,2.65-3.77,3.18-.48,1.07-.59,2.71-1.51,3.5s-2.52,1.04-3.65,1.29c-.03-.05-.11-.1-.15-.15-.25-.26-.38-.24-.46-.3-.05-.05-.1-.11-.15-.15s-.1-.11-.15-.15c-.21-.17-.38-.24-.46-.3-.05-.04-.1-.11-.15-.15s-.1-.11-.15-.15c-.19-.15-.35-.22-.46-.3-.05-.04-.09-.11-.15-.15-.22-.16-.09-.28-.61-.46Z"/>
  <path class="st0" d="M21.28,6.94c-.08.14-.13.41-.26.46-.69.22-1.68.05-2.4.3-6.1.18-12.29.39-18.36-.3l-.26-.46h21.28Z"/>
</svg>