<?xml version="1.0" encoding="UTF-8"?>
<svg id="Box_Info" xmlns="http://www.w3.org/2000/svg" version="1.1" viewBox="0 0 21.76 19.06">
  <!-- Generator: Adobe Illustrator 29.5.1, SVG Export Plug-In . SVG Version: 2.1.0 Build 141)  -->
  <defs>
    <style>
      .st0 {
        fill: #256187;
      }
    </style>
  </defs>
  <path class="st0" d="M19.97,2.2c1.64,1.34,2.25,3.84,1.42,5.81-.65,1.54-2.89,3.14-3.24,4.51-.19.72-.14,1.88-.11,2.64s.55,1.8,0,2.43c-.69.79-4.42,1.36-5.55,1.44-1.32.09-5.8.15-6.7-.75-.52-.52-.49-3.81-1.06-4.71-.32-.5-2.51-1.73-3.19-2.43C-.3,9.2-.47,6.13.92,3.88c1.22-1.95,2.74-1.59,4.43-2.17,1.27-.43,1.92-1.49,3.67-1.52.75-.01,1.8.45,2.42.44.48,0,1.33-.52,1.99-.6.93-.11,2.09-.02,2.95.36.46.2.8.62,1.18.8.69.32,1.83.51,2.42,1ZM18.2,4.43c.13-3.6-3.31-4.69-6.23-3.49l.53.76C9.42-.06,6.37.64,4.59,3.67c-.34-.32.59-1.32.53-1.37C1.98,2.16.48,4.86.41,7.67c.54.47.58,1.24,1.03,1.9.23.33,1.01,1.12,1.33,1.4.24.21,1.65,1.29,1.82,1.37.19.08.29-.04.22-.22l-1.52-1.44c.74.17,1.22.89,1.75,1.37l-.15-.76,1.77,2.11.9-.14c.15-.12-.67-1.61-.79-1.87-.31-.67-.43-.41-.86-.99-.84-1.13-1.6-3.86-1.69-5.27-.02-.31-.16-.8.3-.68-.07,1.35.23,2.72,1.06,3.8-.05.02-.41-2.12-.07-1.37.24.53.39,1.31.66,1.93.24.56,1.7,3.8,1.92,4,.44.39,1.91-.15,2.51-.15l-.91-4.86,1.21,3.64c-.14-2.07-.55-4.17-.15-6.23l.38,3.34c.41-.43.28-1.15.49-1.64.07-.17.29-.15.34-.3.23-.7.12-1.94.77-2.47l-1.21,8.51,1.66-.16c.49-1.73,1.35-3.52,2.37-5,.12-.18.16-.49.46-.46l-1.14,2.51c.02.61.58-.61.68-.53.07.4-.48.98-.71,1.42-.37.68-.68,1.39-1.04,2.08l3.09.32c.16-.04.84-2.34,1.1-2.73.13-.19.25-.37.52-.32l-.31.68c.04.2.25-.09.3-.15,1.23-1.45,1.56-2.37,2.39-3.98.09-.18.32-.18.34-.3.37-1.62-1.51-3.72-2.96-4.15-.45-.13.14,1.02.19,1.33.05.28.25,1.41-.26,1.25ZM17.44,13.55c-.44-.48-1.56-.54-2.21-.59-2.45-.16-5.38-.02-7.76.57-.58.14-1.49.34-1.88.78,3.83-1.09,7.93-1.55,11.86-.76ZM17.44,15.68c.14-1.88,0-1.94-1.75-2.13-2.11-.23-5.14-.06-7.25.35-.54.11-2.63.53-2.71,1.1-.03.22.18,1.39.4,1.43,3.63-1.13,7.56-1.32,11.31-.75ZM17.59,16.28c-.05-.29-.32-.25-.53-.31-2.45-.67-7.04-.26-9.54.36-.35.09-.87.21-1.18.34-.24.1-.37-.02-.3.37,3.69-1.22,7.73-1.5,11.55-.76Z"/>
  <path class="st0" d="M15.31,12.48c.38-1.46,1.41-2.99,2.58-3.95l-1.85,3.24-.73.71Z"/>
</svg>