<?xml version="1.0" encoding="UTF-8"?>
<svg id="Box_Info" xmlns="http://www.w3.org/2000/svg" version="1.1" viewBox="0 0 16.04 19.92">
  <!-- Generator: Adobe Illustrator 29.5.1, SVG Export Plug-In . SVG Version: 2.1.0 Build 141)  -->
  <defs>
    <style>
      .st0 {
        fill: #256187;
      }
    </style>
  </defs>
  <path class="st0" d="M14.1,6.22c2.3.34,2.13,4.34,1.6,6.01-.59,1.85-1.95,2.26-3.43,3.26-.27,1.33.41,2.71-.99,3.56-1.95,1.19-8.49,1.1-10.51.04-.27-.14-.64-.31-.77-.6L.33,4.34c3.74-.63,7.64-.47,11.42-.09v1.98c.74.08,1.65-.1,2.36,0ZM10.68,5.31H1.26c-.03,3.38-.2,6.73-.3,10.11-.05,1.76-.88,2.44,1.33,3.06,1.58.44,7.78.77,8.71-.78l-.31-12.39ZM13.95,7.74h-2.2c.29,1.92.04,3.94.3,5.85.03.2-.08.27.23.23.81-.12,2.16-1.6,2.32-2.39.14-.69.16-3.43-.65-3.69Z"/>
  <path class="st0" d="M11.74,3.94l-1.13-.14c-.2-.14.01-.85-.66-1.2-.88-.46-1.69.16-2.03.04-.49-.19-.97-1.34-2.04-1.44-1.53-.15-2.24,1.66-2.46,1.69-.18.03-.58-.17-.89-.18-.82,0-1.19.44-1.14,1.23l-.92-.06c-.61-.41.4-1.65.86-1.89.51-.27,1.4-.19,1.69-.36.09-.05.59-.85.96-1.09,1-.65,1.97-.72,3.04-.17.34.17,1.13.93,1.3.96.2.04.63-.15,1.03-.11,1.3.13,2.45,1.43,2.37,2.73Z"/>
  <path class="st0" d="M10.22,7.9l.39,9.41c-.58.95-5.69.82-6.83.74-.86-.06-1.69-.3-2.5-.61l.45-9.54c2.82-.35,5.67-.39,8.49,0Z"/>
</svg>