<?xml version="1.0" encoding="UTF-8"?>
<svg id="Box_Info" xmlns="http://www.w3.org/2000/svg" version="1.1" viewBox="0 0 19.79 19.98">
  <!-- Generator: Adobe Illustrator 29.5.1, SVG Export Plug-In . SVG Version: 2.1.0 Build 141)  -->
  <defs>
    <style>
      .st0 {
        fill: #256187;
      }
    </style>
  </defs>
  <path class="st0" d="M18.41,11.28c-.74.07.13-1.21.24-1.51.05-.14.2-.49-.08-.46-.32,1.02-.95,1.91-1.55,2.78-1.63,2.37-5.7,7.31-8.6,7.82-1.53.26-1.57-.17-2.38-1.2C3.02,14.91-3.68,4.86,2.6,1.32c2.47-1.39,4.08-.4,5.99,1.29C12.63-2.42,20.08.27,19.78,6.81c-.07,1.59-.62,3.1-1.38,4.47ZM5.64,1.86c-2.39-.13-3.82,1.88-3.63,4.16.33,3.98,3.76,7.08,6.06,10.05-.15.25-.34-.05-.46-.15-1.16-.98-2.3-2.34-3.51-3.18-.14-.09-.46-.38-.59-.17l4.02,4.65c.13.13.28.17.46.15.24-.02,3.35-2.72,3.74-3.12,1.91-1.93,5.18-6.68,3.98-9.45-.27-.62-.91-.95-1.09-1.57.89.03,1.46.49,1.9,1.21.14-1.11-1.56-2.42-2.6-2.57-1.19-.17-2.13.02-3.15.62-1.1.65-1.87,1.95-3.15,2.25l.29-1.51c-.8-.25-2.08-1.05-2.92-.9-.33.06-1.44,1.07-1.63.89,0-.46.52-.69.83-.91l1.45-.45Z"/>
</svg>