<?xml version="1.0" encoding="UTF-8"?>
<svg id="Box_Info" xmlns="http://www.w3.org/2000/svg" version="1.1" viewBox="0 0 16.76 19.95">
  <!-- Generator: Adobe Illustrator 29.5.1, SVG Export Plug-In . SVG Version: 2.1.0 Build 141)  -->
  <defs>
    <style>
      .st0 {
        fill: #256187;
      }
    </style>
  </defs>
  <rect class="st0" x="12.62" y="14.6" width=".15" height=".3"/>
  <path class="st0" d="M12.62,13.08h-.15s-.02-.18.15-.15v.15Z"/>
  <path class="st0" d="M2.43,6.24s-.13-.03-.15,0c.03-.04.02-.06.15-.15-.03.03.03.13,0,.15Z"/>
  <path class="st0" d="M3.5,4.87l.61-.46h-.91l.15-.61c-.27.05-.5-.15-.46-.46.24.06.25-.06.38-.15.26-.18.69-.64.91-.76.4-.22.12-.18.23-.3.02-.02.37,0,.46-.23l-1.75-.08c-.13-.23-.3-.11-.46-.15-.2-.06-.27-.41-.23-.61.22-.02.47.03.68,0,.46-.07,1.07-.17,1.52-.3.23-.07.63.27,1.06.15.04-.01.3-.23.15-.3L5.47.01c.22.02.48-.03.68,0,.28.05.88.42,1.06.46.73.16,1.68.1,2.43.3.91.25,2.06,1.21,2.89,1.67.31.17.65.58,1.06.91.26.2.69.72.76.76.07.04.2-.03.23,0,.05.05-.04.52,0,.68.02.09.36.32.46.46.51.72.92,1.6,1.37,2.43.06.1.28.23.3.3.06.21.04,1.55,0,1.82,0,.06-.14.09-.15.15-.06.27-.05.33-.15.61-.12.33-.56,1.36-.84,1.44-.11.03-.35-.03-.38,0-.02.02.01.36-.23.46l-.08-.08.15-.23c-.25.08-.3-.13-.38-.15-.28-.09-.42.2-.68.15l.08-.3h-.23c.08.25-.1.27-.15.38-.25.55-.42,1.14-.91,1.52l.3.46-.15.15.15.3-.08.08-.23-.15c.06-.27-.21-.34-.15-.61h-.08c-.16.14-.28.23-.23.46l.3-.15v.3l-.46.23.23.68-.23-.61c-.42.11-.16.59-.61.46v.46l.23-.15.08.08c-.43.26-.24.55-.3.91-.01.06-.14.09-.15.15-.02.12-.03.5,0,.61.02.08.59.68.61.76.03.11.03.8,0,.91-.05.18-.32.2-.38.23-.1.06-.39.29-.46.3-1.67.45-4.87.45-6.54,0-.06-.02-.09-.13-.15-.15-.49-.18-.72-.27-.84-.84.23-.12.1-.34.15-.46.07-.18.44-.56.46-.61.04-.15.02-.72,0-.91,0-.06-.14-.09-.15-.15-.03-.16.02-.36,0-.53l-.23.15-.08-.08c.28-.21.15-.35-.08-.53l-.3.3c-.24-.32-.73-.06-1.06-.15-.47-.13-.34-.87-.38-.91-.03-.03-.27.03-.38,0-.58-.17-.28-1.08-.38-1.44-.03-.11-.57-.36-.76-.61-.02-.03.03-.12,0-.15-.13-.19-.34-.37-.46-.61l.46-.08-.46-.23c.09-.23.36-.43.46-.61.04-.07-.03-.2,0-.23.03-.03.38.11.61-.23l-.3-.23c.29-.06.33.26.61.08s.1-.61.15-.91c.02-.13.45-.44-.15-.38l-.15-.61c-.16.1-.72.35-.76,0,.35-.02.71.17.61-.3h.61l.15-.38c-.2-.08-.13-.36-.15-.38-.04-.04-.36.12-.3-.15l.61.15c-.08-.23.15-.35.15-.38,0-.06-.3-.25-.3-.3,0-.05.15-.1.15-.15,0-.2-.51-.15-.46-.38l.46-.08c-.39.35.1.17.15.23,0,.01-.02.15.08.15s.07-.14.08-.15c.05-.05.11-.11.15-.15.05-.05.31-.08,0-.15.02-.01.01-.24.3-.15l-.15-.3h.46v-.46c.3.09.28-.14.3-.15.03-.02.11.05.15-.15ZM7.45.62l-1.22-.3.38.46.84-.15ZM8.51.92l-.76.08.38.53.38-.61ZM4.56,1.07c-.24-.04-.3.12-.53.15s-.51-.02-.76,0l-.38.3h1.52l.15-.46ZM5.93,1.07c-.35.06-1.1-.24-.91.38.13.42.63,0,.91.08v-.46ZM8.82,1.53c.37.06.64-.07.61-.46h-.15v.3h-.46v.15ZM4.79,1.23c-.1,0-.1.15,0,.15s.1-.15,0-.15ZM9.88,1.68l-.15.08c0,.1.15.07.15.08.23.3.23.36.68.3l-.08.46.61-.3c-.12-.2-.42-.57-.61-.68-.16-.1-.56-.18-.61.08ZM6.08,1.68c-.58-.08-.67.25-.61.76l-.38-.46c-.2.14-.42.5-.61.61-.3.17-.21.25-.61.46-.04.02-.12-.02-.15,0-.24.15-.26.34-.23.61.29.07.36-.18.53-.3.19-.13.61-.2.53-.61l.23.15.76-.46,1.14-.15-.38-.3-.38.15.15-.46ZM9.73,3.51c-.48.08-.67-.97-.91-1.22-.03-.03-.28.03-.3,0-.07-.07.22-.23-.23-.3-.18-.03.06-.36-.23-.3l.15,1.37.3.08c.04.15-.13.03-.23.08-.71.34-1.37.81-2.13.91l-.68.38.99.08.53-.15-.15-.46.53.3.68-.15-.3-.46.61-.15-.15.61c.25.04.62-.06.84,0,.08.02.22.28.3.3.15.04.31-.05.61,0,.71.12,1.42-.01,2.05-.23.22-.07.38-.1.61-.08l-.23.46c.21-.19.74-.21.84-.53.11-.36-.39-.8-.46-.38l.3.3c-.43.09-.58-.2-.84-.46-.24.09-.21.44-.23.46-.03.03-.27-.03-.38,0-.06.02-.1.14-.15.15-.35.05-.78-.04-1.14,0-.04-.04.39-.46,0-.46l-.61.46v-.61h.3l-.38-.46-.08.08c.15.11.18.2.15.38ZM9.42,1.83c-.27-.01-.53.08-.68-.15l-.08.08c0,.12.68.46.76.38v-.3ZM9.2,2.29c-.1,0-.1.15,0,.15s.1-.15,0-.15ZM9.5,2.29c-.1,0-.1.15,0,.15s.1-.15,0-.15ZM11.55,2.59v-.3h-.15v.3h.15ZM7.45,2.44c-.17-.17-.47.14-.3.3s.47-.14.3-.3ZM7.9,3.05v-.61h-.15v.61h.15ZM9.96,2.44c-.1,0-.1.15,0,.15s.1-.15,0-.15ZM6.84,2.59c-.72-.04-1.95-.09-.99.76l1.14-.23.61.08c-.16-.43-.46-.35-.76-.15v-.46ZM9.5,2.59c-.1,0-.1.15,0,.15s.1-.15,0-.15ZM12.01,2.75c-.05-.06-.39.3-.46.38-.02.03.02.12,0,.15-.11.14-.47.33-.38.53.44-.24.8-.53.84-1.06ZM5.32,2.9c-.39-.04-.57.43-.84.61-.06.04-.39.11-.46.15-.24.15-.26.34-.23.61.11.12.68-.37.84-.46.04-.02.11.02.15,0,.25-.12.47-.39.84-.3l-.3-.15v-.46ZM11.4,3.05h-.61v.61l.61-.61ZM12.69,3.2c-.1,0-.1.15,0,.15s.1-.15,0-.15ZM5.24,4.27c-.1,0-.1.15,0,.15s.1-.15,0-.15ZM2.74,11.86h-.15v-.3h-.15l.15.61h.15v-.3s.57.46.46-.15c.42.07.7-.11,1.06-.3-.02.22.03.48,0,.68,0,.06-.15.1-.15.15,0,.06.28.22.3.3.15.55-.46,1-.46,1.06,0,.05.15.1.15.15s-.15.1-.15.15.31.28.38.38l-.23-.46c.23-.05.39.12.53.3.1.14-.2.25.15.46l.15-.3c.1.16.38.3.38,0l-.61-.61c.23.11.45.35.68.46.08.04.72.29.76.3.22.05.52-.04.76,0,.06,0,.1.14.15.15.24.03.67.03.91,0,.06,0,.09-.14.15-.15.24-.04.53.04.76,0,.06-.01.09-.14.15-.15.77-.19,1.38-.44,1.98-.91.84-.68,1.38-1.66,1.6-2.66.19-.13.15-.8.53-.68.43.13-.03.73.08.99-.24.37-.36.94-.61,1.37-.12.21-.49.55-.61.76-.04.07.03.2,0,.23s-.16-.04-.23,0c-.15.08-.3.35-.46.46-.19.12-.89.54-1.06.61-1.03.41-2.47.56-3.57.38l-.76-.08.38.3c.79.22,1.59.09,2.43.15.3.02.42.13.68.15l-.3-.3.91.15-.3-.3c.25.08.29-.12.38-.15s.21.03.3,0c.12-.04.2-.35.46,0l.08-.08c-.38-.32.21-.31.3-.38-.01,0-.04.19-.15.23l.08.08c.13-.07.17-.23.23-.3.01-.01.32-.08,0-.15.36-.32.61-.71,1.06-1.06l.08.15c.1,0,.07-.14.08-.15s.15.02.15-.08-.15-.07-.15-.08c-.07-.16.33-1,.53-.61l.08-.08c-.15-.1-.2-.28-.15-.46.1-.32.41-.89.46-1.22.08-.53-.06-1.2,0-1.75l-.15.76h-.46c.12-.27-.14-.48-.15-.53-.18-1.24-.21-1.6-.91-2.73-.3-.49-.87-.87-1.06-1.22-.04-.07.03-.2,0-.23-.04-.04-.51.03-.68,0-.18-.03-.71-.25-.91-.3-.25-.06-1.01-.32-1.06-.3-.06.02-.09.14-.15.15-.18.04-.43-.04-.61,0-.25.06-.82.21-1.06.3-.08.03-.4.29-.46.3-.51.11-.76-.09-1.06-.46l-.08.08c.38.15-.13.68-.23.68-.05,0-.1-.15-.15-.15l-.08.08c.32.21-.13.36-.3.61-.29.42-.77,1.2-.91,1.67-.15.49-.09.88-.15,1.37,0,.06-.15.1-.15.15-.06.63.05,1.38.15,1.98,0,.06.15.1.15.15,0,.1-.3.32-.38.08l.08.61ZM13.38,4.87v-.46l-.61.3.15.46c.32-.01-.03-.44.46-.3ZM13.76,4.42c-.1,0-.1.15,0,.15s.1-.15,0-.15ZM4.33,4.87c-.1,0-.1.15,0,.15s.1-.15,0-.15ZM10.94,5.02l.53.3,1.29,1.29-.08-.53c-.06.04-.11.15-.15.15-.09,0-1-1.04-1.22-1.22-.15-.12-.33-.35-.38,0ZM11.78,5.02l-.08.08.53.53.08-.08-.53-.53ZM13.98,6.7c.02-.17-.03-.38,0-.53.02-.12.1-.42.15-.61.02-.08.27-.25.15-.53-.25.07-.31.38-.61.3v.3h-.46l.08.3c.09-.08.17-.25.23-.08.11.3.3.54,0,.76l.08.08h.38ZM3.57,5.63l-.38.38.08.08.38-.38-.08-.08ZM14.59,5.63c-.05.23.07.31.23.46l.08-.08c-.15-.11-.18-.2-.15-.38h-.15ZM3.04,6.39l.3.08-.53.38.38-.08-.15-.38ZM14.74,6.24c-.53-.12-.08.42-.61.3.25.57.43.1.61-.3ZM15.28,6.24c-.1,0-.1.15,0,.15s.1-.15,0-.15ZM13,6.54c-.1,0-.1.15,0,.15s.1-.15,0-.15ZM15.2,6.7s-.13-.03-.15.08c-.07.33.05.29.15.38.05.05-.48.48-.3.76l.3-.08-.08-.38c.09.26.51.28.53.3.03.03-.02.26,0,.38.03.14.29.13-.15.46l.3.23c-.08-.25.13-.31.15-.38.05-.2-.14-.24-.15-.3-.06-.26.06-.67,0-.91-.03-.13-.47-.3-.3-.68-.29-.09-.24.09-.3.15ZM2.2,6.7c-.1,0-.1.15,0,.15s.1-.15,0-.15ZM12.84,6.85c-.1,0-.1.15,0,.15s.1-.15,0-.15ZM13.15,6.85c-.1,0-.1.15,0,.15s.1-.15,0-.15ZM13.98,6.85c-.57-.07-.06.16-.15.61.45-.16.16-.28.15-.61ZM2.58,7.3l.3.08-.3-.38-.15.61.15-.3ZM2.96,7c-.1,0-.1.15,0,.15s.1-.15,0-.15ZM14.59,7c.06.26-.13.36-.3.53l.08.08c.18-.2.44-.32.38-.61h-.15ZM13,7.15c-.1,0-.1.15,0,.15s.1-.15,0-.15ZM13.3,7.15c-.1,0-.1.15,0,.15s.1-.15,0-.15ZM13.15,7.61c-.1,0-.1.15,0,.15s.1-.15,0-.15ZM13.45,7.61c-.1,0-.1.15,0,.15s.1-.15,0-.15ZM2.43,8.22v-.46h-.15v.46h.15ZM2.74,8.22v-.46h-.15v.46h.15ZM16.04,7.76c-.1,0-.1.15,0,.15s.1-.15,0-.15ZM13.38,8.37v-.46h-.15v.46h.15ZM2.05,8.22c-.1,0-.1.15,0,.15s.1-.15,0-.15ZM1.67,8.82v-.46h-.15v.46h.15ZM2.58,8.82v-.46h-.15v.46h.15ZM14.9,8.37c-.15-.15-.74.12-.61.46h.76c-.14-.14-.13-.44-.15-.46ZM2.28,9.28v-.61h-.15v.61h.15ZM15.66,9.13c-.3,0-.27-.15-.61-.08-.38.09-.39,0-.76-.08.13.35.68.52.99.46l.38-.3ZM13.83,9.73v-.61h-.15v.61h.15ZM15.2,10.19c.29.04.5-.17.46-.46l-.46.46ZM16.42,10.04l-.3-.3v.3h.3ZM2.28,10.8v-.61h-.15v.61h.15ZM14.67,10.34c-.1,0-.1.15,0,.15s.1-.15,0-.15ZM15.96,10.49h-.46v.15h.46v-.15ZM2.51,10.65c-.1,0-.1.15,0,.15s.1-.15,0-.15ZM1.52,10.8c-.52-.09-.49.16-.68.46-.14.21-.33.08-.38.23.7.56.5.22.61-.15.08-.28.6-.09.46-.53ZM13.68,11.1v-.3h-.15v.3h.15ZM2.43,11.41v-.46h-.15v.46h.15ZM14.14,11.56c.29,0,.48.24.84.15l.68-.53-1.52-.08v.46ZM2.13,12.17l-.38-1.06c-.45.42-.31,1.19.38,1.06ZM13.45,11.41c-.1,0-.1.15,0,.15s.1-.15,0-.15ZM15.73,11.41c-.1,0-.1.15,0,.15s.1-.15,0-.15ZM15.43,11.71c-.1,0-.1.15,0,.15s.1-.15,0-.15ZM.91,11.86h-.3v.15h.3v-.15ZM13.3,11.86c-.1,0-.1.15,0,.15s.1-.15,0-.15ZM3.95,12.01h-.46c.03.28,0,.44-.23.61l-.46-.3-.99.61h.61v.3h.08c.37-.51,1.37-.47,1.44-1.22ZM1.82,12.32l-.68-.15c-.07.23-.7.03-.53.38.1.21.45.45.68.38l.53-.61ZM13,12.47c-.1,0-.1.15,0,.15s.1-.15,0-.15ZM2.28,13.23c-.39.1-.48-.16-.76-.3.08.25-.14.32-.15.38-.14.72.1.44.38.53.09.03.48.35.53.3.2-.52-.64-.12-.46-.53.13-.28.49-.13.46-.38ZM3.95,12.93c-.12-.14-.73.44-.76.53-.05.16.06.18.08.23.13.33-.11.3-.08.61l.46-.53.3-.84ZM2.81,13.38l-.23.23.08.08.23-.23-.08-.08ZM12.08,13.69c-.1,0-.1.15,0,.15s.1-.15,0-.15ZM2.96,13.84c-.1,0-.1.15,0,.15s.1-.15,0-.15ZM2.89,14.9l.15-.53-.08-.08c-.26.36-.35-.42-.68.08l.46.68-.61-.61c0,.24-.07.84.23.91.49.12.96-.13,1.44-.15l-.15-.61-.76.3ZM4.18,14.75l-.08.08.23.23.08-.08-.23-.23ZM11.7,15.05v-.3h-.08c-.17.17-.27.36-.53.3v.3c.25-.07.31-.38.61-.3ZM5.17,15.96l.15-1.06c-.45.21-.96,1.03-.15,1.06ZM10.26,14.9c-.1,0-.1.15,0,.15s.1-.15,0-.15ZM6.61,15.2c-.1,0-.1.15,0,.15s.1-.15,0-.15ZM4.71,16.27l-.46-.91v.84l.46.08ZM7.45,15.36h-.46v.15h.46v-.15ZM8.82,15.36h-.76v.15h.76v-.15ZM10.94,15.36h-.3v.15h.3v-.15ZM10.49,15.81l-.23-.3c-.16.14-.28.23-.23.46.18-.05.23-.22.46-.15ZM6.38,16.12c.03-.47-.34-.5-.76-.46.1.38.5.26.76.46ZM9.58,15.81c-.17-.17-.47.14-.3.3s.47-.14.3-.3ZM7.6,15.96h-.46c-.12.66.56.09.46,0ZM8.21,15.96h-.46v.08c.14.16.23.28.46.23v-.3ZM9.12,15.96h-.46v.3h.46v-.3ZM10.34,16.27h-.3v.15h.3v-.15ZM6.16,16.42c-.1,0-.1.15,0,.15s.1-.15,0-.15ZM7.22,16.57c-.1,0-.1.15,0,.15s.1-.15,0-.15ZM7.75,16.57h-.3v.15h.3v-.15ZM8.66,16.57h-.46v.15h.46v-.15ZM8.21,17.03h-.61l-.15.38.68.23.08-.61ZM10.72,17.33c-.1,0-.1.15,0,.15s.1-.15,0-.15ZM5.24,17.48c-.1,0-.1.15,0,.15s.1-.15,0-.15ZM5.55,17.48c-.1,0-.1.15,0,.15s.1-.15,0-.15ZM6.99,17.48h-.46l.3.46-.3.15.38.15.08-.76ZM9.27,17.48h-.46c-.12.66.56.09.46,0ZM10.34,17.48h-.3v.15h.3v-.15ZM7.22,17.64c-.1,0-.1.15,0,.15s.1-.15,0-.15ZM8.59,17.64c-.1,0-.1.15,0,.15s.1-.15,0-.15ZM7.6,18.09v-.3h-.15v.3h.15ZM8.28,17.79c-.1,0-.1.15,0,.15s.1-.15,0-.15ZM9.27,17.94l-.61.15v.15l.61-.15v-.15ZM7.98,18.09c-.1,0-.1.15,0,.15s.1-.15,0-.15ZM4.26,18.85c.23.05.31-.07.46-.23-.14-.16-.23-.28-.46-.23v.46ZM7.14,18.55h-.61v.15h.61v-.15ZM9.27,18.55h-.61v.15h.61v-.15ZM11.55,18.85c.04-.55-.09-.13-.46-.15v.15h.46ZM5.47,19.15c.04-.38-.24-.51-.61-.46v.46h.61ZM10.94,18.85h-.76v.08c.24.34.62.33.76-.08ZM6.16,19c-.1,0-.1.15,0,.15s.1-.15,0-.15ZM9.73,19h-.3l.23.3h.08v-.3ZM6.61,19.15c-.1,0-.1.15,0,.15s.1-.15,0-.15ZM8.82,19.46v-.3h-.15v.3h.15ZM9.2,19.15c-.1,0-.1.15,0,.15s.1-.15,0-.15ZM7.52,19.31c-.1,0-.1.15,0,.15s.1-.15,0-.15Z"/>
  <path class="st0" d="M11.4,14.29s-.12-.03-.15,0c0,0,.07-.08.15-.15-.03.03.03.13,0,.15Z"/>
  <path class="st0" d="M2.28,6.39h-.15c-.03-.17.14-.14.15-.15-.03.03.03.13,0,.15Z"/>
  <path class="st0" d="M3.5,4.87l-.15.15c-.31-.06-.12-.3.08-.46h.08c0,.1.02.22,0,.3Z"/>
  <polygon class="st0" points="9.88 1.83 9.88 1.68 10.03 1.76 9.88 1.83"/>
  <polygon class="st0" points="15.2 7.15 15.2 6.7 15.35 6.77 15.35 7.08 15.2 7.15"/>
  <polygon class="st0" points="13.83 13.99 13.6 13.99 13.22 14.44 13.22 13.91 13.38 13.76 13.45 13.38 13.83 13.99"/>
  <path class="st0" d="M.91,7c.13.13-.2.56-.46.46.09-.2.22-.7.46-.46Z"/>
  <path class="st0" d="M2.74,5.02h-.3l-.15.61-.46-.08c.07-.21.42-.18.46-.3.08-.23.2-.42.15-.68l.3.46Z"/>
  <path class="st0" d="M1.82,5.94c-.18-.03-.27,0-.38.15l-.08-.08c.27-.18.03-.25-.15-.46l.08-.08c.15.19.48.15.53.46Z"/>
  <polygon class="st0" points="3.04 4.57 3.04 4.87 2.96 4.87 2.74 4.57 3.04 4.57"/>
  <rect class="st0" x="1.06" y="7.76" width=".3" height=".15"/>
  <rect class="st0" x="13.98" y="12.47" width=".3" height=".15"/>
  <rect class="st0" x="15.05" y="12.77" width=".3" height=".15"/>
  <path class="st0" d="M14.29,13.53v-.15c.18.03.27,0,.38-.15l.08.08c-.14.16-.23.28-.46.23Z"/>
  <rect class="st0" x="12.77" y="15.05" width=".15" height=".3"/>
  <rect class="st0" x=".3" y="9.13" width=".3" height=".15"/>
  <rect class="st0" x="12.01" y="15.51" width=".15" height=".3"/>
  <rect class="st0" x=".75" y="9.68" width=".32" height=".11" transform="translate(-6.62 3.5) rotate(-45.01)"/>
  <path class="st0" d="M.68,9.43c.1,0,.1.15,0,.15s-.1-.15,0-.15Z"/>
  <path class="st0" d="M1.29,9.28c.1,0,.1.15,0,.15s-.1-.15,0-.15Z"/>
  <path class="st0" d="M.84,8.22c.1,0,.1.15,0,.15s-.1-.15,0-.15Z"/>
  <path class="st0" d="M14.52,12.32c.1,0,.1.15,0,.15s-.1-.15,0-.15Z"/>
  <path class="st0" d="M13.76,12.77c.1,0,.1.15,0,.15s-.1-.15,0-.15Z"/>
  <path class="st0" d="M14.36,12.77c.1,0,.1.15,0,.15s-.1-.15,0-.15Z"/>
  <path class="st0" d="M13.76,13.08c.1,0,.1.15,0,.15s-.1-.15,0-.15Z"/>
  <rect class="st0" x="13.93" y="13.37" width=".11" height=".32" transform="translate(-5.47 13.86) rotate(-45.01)"/>
  <path class="st0" d="M14.36,14.14c.1,0,.1.15,0,.15s-.1-.15,0-.15Z"/>
  <path class="st0" d="M14.06,14.29c.1,0,.1.15,0,.15s-.1-.15,0-.15Z"/>
  <rect class="st0" x="1.47" y="6.69" width=".11" height=".32" transform="translate(-4.4 3.08) rotate(-45.01)"/>
  <path class="st0" d="M13.15,15.05c.1,0,.1.15,0,.15s-.1-.15,0-.15Z"/>
  <path class="st0" d="M3.12,16.27c.1,0,.1.15,0,.15s-.1-.15,0-.15Z"/>
  <path class="st0" d="M3.88,16.27c.1,0,.1.15,0,.15s-.1-.15,0-.15Z"/>
  <path class="st0" d="M3.42,16.42c.1,0,.1.15,0,.15s-.1-.15,0-.15Z"/>
  <path class="st0" d="M9.27,11.56l-.15.53.3.53-.46-.61c-.47.16-.12.31-.15.68l.23.68-.38-1.06-.46.61.15-.91c.45.13.25-.25.3-.3.03-.03.15.04.23,0,.11-.06.07-.15.08-.15.07-.02.21.01.3,0Z"/>
  <path class="st0" d="M6.08,7c.06-.05.4-.15.23-.3-.1-.35-.55-.63-.53-1.06l.61,1.06.3-.08v-.84l.23.91.38-.15-.3-.91.61.91v-.76l.46.61v-.84l.3-.38-.15,1.22.3-.46.15.46.53-.15-.08.3c.24.12.54-.38.61-.3.11.13-.32.42.08.61l.46-.46c.16.15-.19.27-.23.38-.03.07,0,.16,0,.23h.46l.23.46.38-.3c.15.43-.27.26-.3.3-.02.02-.04.4-.15.46h.3c.1.43-.16.21-.38.46l-.08-.08c.15-.11.18-.2.15-.38-.06.03-.28-.03-.3,0-.06.06.15.27-.15.3-.01-.07.02-.15,0-.23,0-.13-.44-.09-.46-.08-.13.13.19.57.15.76v-.46c.1,0,.21.01.3,0,.11.5.25.6.76.3l-.76.15v.3l.91.15c.04.27-.21.12-.38.15-.81.16-.09.95.53.76.03.27-.34.14-.53.15-.24.01-.44.12-.23.3.28-.11.42.11.53.15.17.06.46-.06.53.3-.26.06-.5-.23-.68-.3-.12-.05-.33.08-.46-.15-.3.28-.39-.02-.38.46-.18.03-.27,0-.38-.15l-.08.08c.2.15.08.28.3.38-.05.11-.58.33-.61.3-.31-.32-.27-.01-.3,0-.09.04-.32-.08-.3.15-.25-.07-.31-.38-.61-.3v.46s-.1,0-.15,0v-.3l-.3.23v.15l.15.08c-.14.22-.3.28-.3.3l-.08-.15-.08.15c-.08.08-.25-.32-.3-.46.24-.06.11-.37.3-.61h-.61l.15.3c-.14-.02-.19.09-.15.23l.15.08s.01.21,0,.3c-.12,0-.16-.11-.3-.15-.03-.18-.07-.12-.15-.15.03-.19.03-.27.15-.46h-.3s-.02-.23.3-.15v-.15h-.46c0,.1.02.21,0,.3-.1,0-.2,0-.3,0l-.08-.46c-.37.22-.07.36-.08.38-.07.24-.69.43-.84.68l.53-.91-.76.23.91-.53-.3-.08.08-.23-.3.3-.84.15.91-.61-.76.15.61-.61h-1.06l1.06-.23-.61-.38.91.15.15-.3-.08-.3-.84-.08h.46c.01-.06.02-.11,0-.15-.14-.28-.48-.13-.46-.38l.61.15c.12-.57-.31-.53-.61-.84l.91.23-.46-.61.76.08-.61-.61c.16-.12.35.2.46.3.3.27.13.22.46.08.02.04-.03.12.08.15.1,0,.07-.15.08-.15ZM7.37,7.15c-.1,0-.1.15,0,.15s.1-.15,0-.15ZM8.36,7.15h-.3v.15h.3v-.15ZM9.42,7.46l-.91-.3.38.3h.53ZM7.07,7.3c-.1,0-.1.15,0,.15s.1-.15,0-.15ZM6.54,7.76c.04-.55-.09-.13-.46-.15v.15h.46ZM9.12,7.91c-.23.09-.54-.27-.68-.3-.48-.1-1.49-.02-1.75.38-.18.29-.66.96-.99,1.14-.07.04-.2-.03-.23,0-.02.02.04.3-.15.38v.68l.3-.84c.46-.46.92-1.01,1.52-1.14v-.3h.61l.3.3-.08-.46c.35-.08.54.15.84.15-.13.44.42.3.68.61l-.38-.3v-.3ZM5.62,8.52s.09.03.15-.08c.02-.03-.02-.11,0-.15.06-.14.25-.23.15-.53h-.15c.05.57,0,.37-.23.46-.1.04-.06.1-.08.15-.15,0-.16.12-.23.15-.13.05-.27-.11-.23.15.19.05.29-.07.46-.15.01.06-.02.12.08.15.1,0,.07-.15.08-.15ZM8.44,8.52c-.1,0-.1.15,0,.15s.1-.15,0-.15ZM9.65,8.67l-.08.08.38.38.08-.08-.38-.38ZM8.36,10.34c.46.1.63-.28.91-.53.03-.18.24-.44-.08-.53-.54-.15-.3.18-.38.38-.05.13-.49.66-.46.68ZM7.07,9.73c-.1,0-.1.15,0,.15s.1-.15,0-.15ZM6.99,10.34l-.46-.46c-.04.29.17.5.46.46ZM6.16,10.19c-.1,0-.1.15,0,.15s.1-.15,0-.15ZM6.46,10.34c-.1,0-.1.15,0,.15s.1-.15,0-.15ZM7.98,10.34c-.1,0-.1.15,0,.15s.1-.15,0-.15ZM10.11,10.34c-.1,0-.1.15,0,.15s.1-.15,0-.15ZM7.14,10.49h-.46v.15h.46v-.15ZM9.8,10.49c-.1,0-.1.15,0,.15s.1-.15,0-.15ZM5.7,10.65c-.1,0-.1.15,0,.15s.1-.15,0-.15ZM8.21,11.1c-.23.06-.28-.1-.46-.15v.3h.46v-.15ZM9.35,11.1c-.1,0-.1.15,0,.15s.1-.15,0-.15ZM7.45,12.01v-.3h-.15v.3h.15Z"/>
  <path class="st0" d="M5.62,8.52c-.05.01-.12-.02-.15,0,0-.04,0-.12,0-.15l.15.15Z"/>
  <path class="st0" d="M6.99,11.86c-.05.01-.14-.02-.15,0v-.3c.23-.01.11.2.15.3Z"/>
  <path class="st0" d="M10.03,11.1c0-.05,0-.1,0-.15.16-.02.2-.21.38-.15.09.03.26.3.38.38l-.08.08-.46-.3c-.04.11-.18.12-.23.15Z"/>
  <path class="st0" d="M7.45,12.32c-.06.15.11.41-.23.61h-.08c-.02-.2,0-.47.15-.61.03-.03.13.03.15,0Z"/>
  <path class="st0" d="M10.03,11.1l.46.46c-.29.06-.35-.19-.61-.3.08-.18.08-.11.15-.15Z"/>
  <path class="st0" d="M6.08,7s-.11-.02-.15,0c-.11-.26-.37-.32-.3-.61h.08l.38.61Z"/>
  <path class="st0" d="M6.54,12.01c.06.35-.15.47-.15.76h-.15c-.11-.28.14-.47.15-.53.02-.08-.01-.16,0-.23.03,0,.12,0,.15,0Z"/>
  <path class="st0" d="M6.38,11.86s.01.1,0,.15c-.44.15-.54.72-.91.91l.61-.99-.76.15c.17-.11.19-.48.38-.53.17-.05.33.11.38-.15.05,0,.11.01.15,0,0,.26-.08.35.15.46Z"/>
  <path class="st0" d="M7.75,12.01s-.02-.18.15-.15l-.15.15Z"/>
  <path class="st0" d="M8.36,12.01h-.23l-.08-.15c.14.03.32-.07.3.15Z"/>
  <path class="st0" d="M7.9,14.29c-.18.21-.29.02-.3-.23-.02-.41.17-.61.15-.99.26-.04.15.35.15.53,0,.23,0,.46,0,.68Z"/>
  <path class="st0" d="M7.14,13.84h-.3c-.1-.3.1-.4.15-.53s-.11-.27.15-.23c-.08.23.15.35.15.38s-.24.15-.15.38Z"/>
  <path class="st0" d="M8.36,13.99v-.76h.08c.34.24.33.62-.08.76Z"/>
  <path class="st0" d="M6.84,13.08h-.15c-.01-.33-.07-.66.3-.76.08.33-.17.48-.15.76Z"/>
  <path class="st0" d="M9.88,12.47c-.25-.11-.5-.34-.46-.61.25.11.5.34.46.61Z"/>
  <rect class="st0" x="10.64" y="9.58" width=".76" height=".15"/>
  <path class="st0" d="M9.12,6.09l.15-.61h.15c.04.29,0,.53-.3.61Z"/>
  <polygon class="st0" points="4.1 8.82 3.8 8.82 3.8 8.52 4.1 8.82"/>
  <polygon class="st0" points="11.55 8.67 11.25 8.67 11.25 8.6 11.55 8.37 11.55 8.67"/>
  <rect class="st0" x="10.49" y="11.71" width=".46" height=".15"/>
  <rect class="st0" x="9.9" y="11.52" width=".11" height=".54" transform="translate(-5.42 10.5) rotate(-45.01)"/>
  <path class="st0" d="M8.97,3.51v.46h-.15c.02-.37-.4-.5.15-.46Z"/>
  <rect class="st0" x="6.54" y="2.75" width=".15" height=".3"/>
  <rect class="st0" x="10.18" y="1.68" width=".15" height=".3"/>
</svg>