<?xml version="1.0" encoding="UTF-8"?>
<svg id="Box_Info" xmlns="http://www.w3.org/2000/svg" version="1.1" viewBox="0 0 19.83 19.62">
  <!-- Generator: Adobe Illustrator 29.5.1, SVG Export Plug-In . SVG Version: 2.1.0 Build 141)  -->
  <defs>
    <style>
      .st0 {
        fill: #811010;
      }
    </style>
  </defs>
  <path class="st0" d="M8.58,5.26l-1.27-.37-.18-.48c.42-.63.93-1.03,1.32-1.71.51-.91.57-1.88,1.13-2.67.22-.05.3-.03.44.14.33.41.55,1.97,1.08,2.72.31.45,2.03,1.52,1.44,1.91l-1.82.47.37,9.78c3.68-1.33,2.63-5.68,4.32-8.46.04-.44-1.11-.53-.98-1.11.2-.34,2.03-.37,2.64-.56,1-.31,1.7-1.32,2.77-1.18-.74,1.71-1.37,3.33-1.37,5.24-.66.13-.93-.38-1.44-.62-.46,0-.65,1.38-.68,1.76-.27,2.95,0,5.24-2.9,7.12-1.12.72-2.6.62-2.27,2.37h-2.65s-.16-1.22-.16-1.22c-3.02-.77-4.54-2.89-5.06-5.88-.12-.72-.12-3.87-.58-3.98l-.9.3-.46-.31c-.19-1.07-.21-2.17-.61-3.19-.26-.65-.97-1.21-.68-1.97.5-.3,2.41,1.26,2.93,1.54,1.41.77,2.82.38,1.04,2.3,1.3,1.8.94,4.18,1.68,6.07.4,1.04,1.62,2.37,2.85,2.09V5.26Z"/>
</svg>