<?xml version="1.0" encoding="UTF-8"?>
<svg id="Box_Info" xmlns="http://www.w3.org/2000/svg" version="1.1" viewBox="0 0 20.96 19.28">
  <!-- Generator: Adobe Illustrator 29.5.1, SVG Export Plug-In . SVG Version: 2.1.0 Build 141)  -->
  <defs>
    <style>
      .st0 {
        fill: #256187;
      }
    </style>
  </defs>
  <path class="st0" d="M5.72.05c4.83-.58,8.09,3.61,7.29,8.2-.06.37-.43.97-.41,1.26.03.41.64.51-.16,1.06l.43.45c0,.09-.75,1.01-.89,1.07-.29.12-.48-.08-.66-.05-.2.04-.32.37-.47.38-.13.01-.3-.25-.55-.2-.2.04-.93.52-1.32.66C-.93,16.22-3.53,1.16,5.72.05ZM5.87,1.12C-1.04,1.87-.27,12.49,6.59,12.33c7.66-.19,6.93-12.04-.72-11.21Z"/>
  <path class="st0" d="M13.46,11.28c.46-.12.81.24,1.15.46,1.38.87,3.05,2.09,4.35,3.1.48.37,2.04,1.43,1.99,1.95-.04.44-1.77,2.46-2.24,2.5l-.28-.12-6.17-6.01-.11-.28c.02-.2,1.09-1.54,1.3-1.6ZM19.28,18.09c-1.17.01-1.85-1.27-2.89-1.67.35.45,2.01,2.24,2.48,2.11l.41-.44Z"/>
  <path class="st0" d="M3.93,11.1c-.24.25-1.52-1.41-1.64-1.62-1.4-2.38-.65-5.65,1.64-7.19-.37.85-.98,1.56-1.26,2.46-.5,1.61-.36,3.49.42,4.99.12.24.94,1.26.84,1.36Z"/>
</svg>