<?xml version="1.0" encoding="UTF-8"?>
<svg id="Box_Info" xmlns="http://www.w3.org/2000/svg" version="1.1" viewBox="0 0 24.62 16.15">
  <!-- Generator: Adobe Illustrator 29.5.1, SVG Export Plug-In . SVG Version: 2.1.0 Build 141)  -->
  <defs>
    <style>
      .st0 {
        fill: #256187;
      }
    </style>
  </defs>
  <path class="st0" d="M24.62,2.11c-.01.37-.22.73-.61.75l.45.22-1.67,1.43-.08-.45c-.71.8-1.62,1.36-2.46,2.01-1.84,1.43-3.62,3.02-5.45,4.47-.51.4-1.3.52-1.29,1.21l.76-.38c-.1.5-.82.71-.91,1.21-.08.47,0,1.07.13,1.53.06.21-.11.42.24.36,2.05-2.07,4.14-4.11,6.46-5.88.15.17-.67.91-.83,1.06-.73.68-1.64,1.35-2.36,2.03-.67.64-2.64,2.38-3.05,3.01-.14.22-.3,1.03.08.84.34-.17.65-.78.91-1.06,2.7-2.83,5.5-5.5,8.59-7.91l.3-.98-1.29,1.21-.06-.72c.45-.09.65-.58.96-.79.17-.11.48-.13.51-.16.04-.05.13-.93.22-1.22.05-.16.04-.46.26-.42,0,.32.02.64-.02.96-.04.38-.3,2.08-.43,2.29-.22.34-.88.76-1.15,1.12-3.3,2.34-5.86,5.44-8.69,8.28-.22.08-.42-.03-.62-.08-1.72-.46-3.81-1.55-5.5-2.23-2.39-.96-4.24-1.62-6.55-2.85-.27-.15-.74-.23-.94-.38-.31-.23-.72-1.99-.48-2.42.61.59.36,1.6,1.07,2.11l.15-.3c.35.43,1.09.12,1.29.6l-.61.08,2.33,1.16,9.07,3.44-.33-1.78c-1.3-.46-2.68-.77-3.96-1.27-.16-.06-.45-.04-.42-.26l2.35.6c.24-.16-.12-.18-.23-.23-.22-.09-.45-.15-.68-.23-.24-.22.15-.15.27-.12.35.09,2.61.99,2.69.87l.46-1.66c-2.06-.51-4-1.43-6-2.12-1.19-.41-2.41-.71-3.61-1.09-.64-.2-2.71-1.15-3.22-1.01-.36.1-.04.73-.55.59-.14-.38-.11-.52.15-.83.89-1.06,1.94-1.2,3.1-1.75C6.69,3.39,9.86,1.57,13.16,0l11.46,2.11Z"/>
  <path class="st0" d="M12,11.62c.03.29-.31.13-.46.08-2.48-.82-4.89-1.81-7.36-2.65-.85-.29-1.92-.44-2.67-.83-.22-.11-.37.01-.3-.38l10.79,3.77Z"/>
  <path class="st0" d="M22.03,5.28l-.81,1.01-6.33,4.88c-.16-.17.54-.78.69-.9,1.55-1.39,3.53-2.5,5.08-3.86.4-.35.66-1.12,1.38-1.12Z"/>
  <path class="st0" d="M10.18,13.57c-1.42-.46-2.74-1.16-4.1-1.73-.92-.38-1.98-.68-2.89-1.06-.24-.1-.37.02-.3-.37.39.14.83.23,1.21.38,1.67.63,4.18,1.54,5.71,2.33.22.11.44.12.37.46Z"/>
  <path class="st0" d="M19.3,8.75c-.35.46-.79.89-1.21,1.28-.89.82-1.99,1.79-3,2.46-.21.14-.38.37-.65.33,1.32-1.31,2.86-2.61,4.33-3.77.17-.14.24-.37.53-.3Z"/>
  <path class="st0" d="M7.14,11.01c-1.22-.3-2.33-.9-3.53-1.25-.87-.25-2.04-.2-2.7-.86,1.9.56,4.06.72,5.78,1.73.17.1.42.15.45.38Z"/>
  <path class="st0" d="M12.91,13.73l-.07.3c-.75-.34-1.56-.56-2.32-.86-.19-.08-.45-.08-.49-.34l2.89.91Z"/>
</svg>