<?xml version="1.0" encoding="UTF-8"?>
<svg id="Box_Info" xmlns="http://www.w3.org/2000/svg" version="1.1" viewBox="0 0 19.77 19.57">
  <!-- Generator: Adobe Illustrator 29.5.1, SVG Export Plug-In . SVG Version: 2.1.0 Build 141)  -->
  <defs>
    <style>
      .st0 {
        fill: #256187;
      }
    </style>
  </defs>
  <path class="st0" d="M.24,19.57c-.36-.11-.2-1.04-.23-1.37h.76s.06-.92.06-.92l.93-.28.09-.82.23-.23,15.34-.03c.72-.05.44.73.7,1.2l.82.16.06.92h.76s0,1.37,0,1.37H.24Z"/>
  <polygon class="st0" points="18.86 4.99 1.15 4.99 .92 4.61 1.17 4.25 9.94 0 18.79 4.38 18.86 4.99"/>
  <polygon class="st0" points="16.43 6.81 16.59 15.53 14.6 15.63 14.76 6.81 16.43 6.81"/>
  <polygon class="st0" points="10.81 15.62 10.96 6.81 12.54 6.81 12.93 15.62 10.81 15.62"/>
  <polygon class="st0" points="5.03 6.81 5.25 15.34 5.08 15.63 3.2 15.63 3.36 6.81 5.03 6.81"/>
  <polygon class="st0" points="8.83 6.81 8.98 15.63 7 15.63 7.16 6.81 8.83 6.81"/>
  <path class="st0" d="M17.19,6.36H2.75v-1.06h14.06c.27,0,.48.8.38,1.06Z"/>
</svg>