<?xml version="1.0" encoding="UTF-8"?>
<svg id="Box_Info" xmlns="http://www.w3.org/2000/svg" version="1.1" viewBox="0 0 12.84 19.95">
  <!-- Generator: Adobe Illustrator 29.5.1, SVG Export Plug-In . SVG Version: 2.1.0 Build 141)  -->
  <defs>
    <style>
      .st0 {
        fill: #256187;
      }
    </style>
  </defs>
  <path class="st0" d="M7.73.05c.08.01.22.2.38.15l-.39,3.04c1.26.47,1.8,1.45,2.62,2.41l2.48-.28v3.34l-2.59-.23c-.7,1.12-1.48,1.89-2.65,2.51-.08,1.9.2,3.86.3,5.78.25.38,4.17.52,4.8,1.13.33.32.07,1.56.15,2.06H.43c-.59,0-.47-1.82-.23-2.06.31-.3,2.45-.7,3.01-.79.47-.08,1.54.08,1.79-.34.13-.22.2-3.87.23-4.48.02-.42.38-1,0-1.37-.17-.17-.76-.38-1.05-.62s-.62-.55-.85-.82c-.21-.23-.39-.76-.52-.84-.57-.35-2.04.24-2.74.08v-3.34l2.48.28c.55-.57.84-1.19,1.47-1.73.71-.61,1.13-.26,1.08-1.52-.03-.65-.22-1.45-.32-2.1,0-.08.37-.25.39-.25C5.9.05,7.04-.06,7.73.05ZM5.37,5.97c-.05-.45.18-1.04-.23-1.37-.4.35-.98.58-.99,1.21l1.22.15ZM8.71,5.82c.21-.17-.86-1.05-.99-1.21-.63,1.24-.38,1.62.99,1.21ZM5.36,7.95c-.29-.19-.68.59-1.21.3-.01.45.6,1.1.99,1.21.31.09.18-.09.23-.22.09-.27.21-1.15,0-1.29ZM7.79,7.96l-.29-.02c-.35.96-.22,2.12.83,1.06,1.18-1.18-.48-.41-.54-1.05Z"/>
</svg>