<?xml version="1.0" encoding="UTF-8"?>
<svg id="Box_Info" xmlns="http://www.w3.org/2000/svg" version="1.1" viewBox="0 0 10.21 20.14">
  <!-- Generator: Adobe Illustrator 29.5.1, SVG Export Plug-In . SVG Version: 2.1.0 Build 141)  -->
  <defs>
    <style>
      .st0 {
        fill: #811010;
      }
    </style>
  </defs>
  <path class="st0" d="M.5,4.1c.06-.08.27-.1.33-.2C1.2,3.32-.33,1.72.06,1.16.18.99,3.69-.14,3.95.01c.46.41.42,2.02.68,2.37.18.25,2.21.09,1.18,1.48l4.36,12.89c.47,3.51-3.55,4.46-4.82,2.08-.48-.9-1.11-3.23-1.45-4.33-.79-2.56-1.52-6.59-2.68-8.87-.3-.59-1.33-.69-.72-1.54ZM4.41,2.84c-.2-.81-.11-1.98-.76-2.58.05.69.13,1.5.35,2.16.09.27,0,.51.41.42-.31.05-1.9.67-2.28.84-.13.06-.41.02-.3.29.04.1.3.33.41.36.35.09,3.3-.65,3.47-1.04l-.1-.44c-.07-.04-1.03-.05-1.2-.01ZM5.45,4.07l-.74-.02.45.38c-.44.11-.44.61-.6.75-.26.22-1.99.41-1.98.62l1.23,4.46,3.49-.07c.63,2.03,2.6,5.5,2.27,7.59-.13.81-1.26,1.68-2.12,1.45.33.61,1.24.23,1.66-.09,1.49-1.11.35-3.59-.1-5.05-1.06-3.38-2.46-6.67-3.56-10.04ZM4.56,4.2c-.38-.03-.73.1-1.09.2-.19.05-.6.02-.58.25.32-.02.65-.1.96-.18.2-.05.71-.03.71-.28ZM2.73,4.66h-.3v.15h.3v-.15Z"/>
</svg>