<?xml version="1.0" encoding="UTF-8"?>
<svg id="Box_Info" xmlns="http://www.w3.org/2000/svg" version="1.1" viewBox="0 0 23.56 18">
  <!-- Generator: Adobe Illustrator 29.5.1, SVG Export Plug-In . SVG Version: 2.1.0 Build 141)  -->
  <defs>
    <style>
      .st0 {
        fill: #256187;
      }
    </style>
  </defs>
  <path class="st0" d="M6.99,16.79c-.18.16-.53.49-.76.53l1.06-1.44.3.08c0,.2-.19.37-.31.53-.05.05-.1.1-.15.15s-.11.09-.15.15Z"/>
  <path class="st0" d="M9.27,9.19s-.03.14-.08.15l-.23-.15c.1,0,.21-.02.3,0Z"/>
  <path class="st0" d="M6.84,6.61c.5.04.71.11,1.21-.16l-.14-.29.61-.15c-.55-.05-1.05.13-1.59.16-.4.02-1.18-.16-1.36-.12-.26.05-.87.94-1.31.34.84-.13,1.36-.56,1.98-1.14h-1.52s.45-.3.45-.3c-.69.14-.62-.21-.92-.65-.11-.16-.42-.04-.15-.41l-.52-.16-.38.15c-.11-.5.35-.26.67-.3l.09-.46-1.21.3c-.09-.59.83-.28,1.06-.68l-.6-.23.45-.3-2.58.3c-.14-.27,1.68-.61,1.07-.84s-1.49,0-2.13-.08l.3-.23L0,1.14C1,1.02,1.88.31,2.85.11c1.66-.35,4.75.21,6.46.61.65.15,2.74,1.01,3.08,1.02.23,0,.48-.25.77-.29.54-.07,1.36-.14,1.59.44l-.61.46c.43.27.83,0,1.15.02.21.01.37.24.61.28.48.09.93-.18,1.29.38.12.19.34.86.4,1.11.12.48.17,2.26.43,2.31.97-.65.83-1.21,2.26-1.05.88.1.95.59,1.27.74s2,.34,2.01.99c-1.56.06-2.22.09-2.74,1.67-.34,1.02-.1,2.22-.75,3.01-.54.65-3.36,2.46-3.47,2.81-.33,1.11.73,1.95,1.79,1.56l-.55.61-.82-.15c.14.81,1.16.33,1.52,1.06l-.67-.16-.32.32c-.42-.57-.77-.62-1.45-.68l.08-.38.53.3-.1-.46-.66-.15.61-.15-.14-.67-.39-.09-.38.45-.28-.53.13-.38c-.52-.19-.74.04-1.22.15l.15-.45c-.51.15-.64.43-1.21.15v.44c-.09.07-.35-.02-.5.02-.21.05,0,.37-.26.3l.15-.61-.3.08v-.68c-1.25-.21-1.99,1.2-2.73,1.91-.52.5-1.31.72-1.61,1.59-.57.02.04-.55.08-.69l-.31-.15.31-.83-1.29,1.06c0-.12.18-.53.23-.6.05-.05.1-.1.15-.15s.11-.1.15-.15c.28-.3.29-.03.61-.76,0,0,.15.02.15-.08l-.15-.08,1.97-2.36-.76.15.27-.15c-.18-.6.46-.55-.11-1.04l.59-1.39c-.36-.6-.66.46-.91.22-.27-.26.4-.4.45-.53l-1.06-.15,1.06-.53c-.46.04-1.03-.38-1.38.06-.23.3.03.68-.41.43l-.64.49.76-1.14c-.61-.08.16.42-.45.3.03-.62-.99-.28-1.22-.76.69-.13,1.89.68,2.13-.23l-.31-.15.61-.83-.91.15.6-.9c-.31.02-.33-.18-.3-.46l-1.21.15s.11-.25.15-.3c-.18-.02-.63.12-.61-.15l1.06-.15c.01.29-.23,0-.46.3ZM2.2.83v.15c.1-.05.1-.1,0-.15ZM4.25,2.35h-.45v.15h.45v-.15ZM5.24,2.66v.15c.1-.05.1-.1,0-.15ZM5.4,4.94v.15c.1-.05.1-.1,0-.15ZM8.74,5.85v.15c.1-.05.1-.1,0-.15ZM8.97,9.19c-.13.12-.49.06-.46.3h1.14c.25-.14-.35-.3-.38-.3.09-.05.17-.16.3-.15l-.07-.3c-.58-.07-.44.37-.53.46ZM10.26,11.32c-.15.19-.46.5-.46.75.18-.18.5-.48.46-.75ZM11.63,11.47l-.23.23.07.07c.08-.1.31-.2.15-.3ZM11.17,11.62v.15c.1-.05.1-.1,0-.15ZM10.11,12.99v.15c.1-.05.1-.1,0-.15ZM9.8,15.57v.15c.1-.05.1-.1,0-.15ZM17.56,17.39v.15c.1-.05.1-.1,0-.15Z"/>
  <polygon class="st0" points="7.9 15.72 7.75 15.65 7.9 15.57 7.9 15.72"/>
  <path class="st0" d="M.3,12.53l.68-.91c.07.2-.46,1.13-.68.91Z"/>
  <path class="st0" d="M3.8,10.25v.22s-.38.38-.38.38c-.37-.28-.1-.75.38-.6Z"/>
  <path class="st0" d="M8.06,14.66c.07.06-.27.4-.46.3-.07-.06.27-.4.46-.3Z"/>
  <path class="st0" d="M3.5,9.8c-.1-.19.24-.53.3-.46.1.19-.24.53-.3.46Z"/>
  <rect class="st0" x="1.67" y="3.57" width=".45" height=".15"/>
  <polygon class="st0" points="4.71 10.41 4.41 10.71 4.41 10.41 4.71 10.41"/>
  <polygon class="st0" points="4.1 9.8 3.8 10.1 3.8 9.8 4.1 9.8"/>
  <polygon class="st0" points="4.86 5.85 4.86 5.7 5.32 5.62 5.09 5.85 4.86 5.85"/>
  <rect class="st0" x="2.36" y="9.14" width=".75" height=".1" transform="translate(-5.7 4.63) rotate(-45.01)"/>
  <path class="st0" d="M5.85,9.49c.1.05.1.1,0,.15v-.15Z"/>
  <path class="st0" d="M6.76,9.8c.1.05.1.1,0,.15v-.15Z"/>
  <path class="st0" d="M7.22,10.1c.1.05.1.1,0,.15v-.15Z"/>
  <path class="st0" d="M4.18,5.54c.1.05.1.1,0,.15v-.15Z"/>
  <path class="st0" d="M8.44,11.62c.1.05.1.1,0,.15v-.15Z"/>
  <path class="st0" d="M3.88,5.39c.1.05.1.1,0,.15v-.15Z"/>
  <path class="st0" d="M8.28,14.36c.1.05.1.1,0,.15v-.15Z"/>
  <path class="st0" d="M1.44,3.72c.1.05.1.1,0,.15v-.15Z"/>
</svg>