<?xml version="1.0" encoding="UTF-8"?>
<svg id="Box_Info" xmlns="http://www.w3.org/2000/svg" version="1.1" viewBox="0 0 12.2 19.99">
  <!-- Generator: Adobe Illustrator 29.5.1, SVG Export Plug-In . SVG Version: 2.1.0 Build 141)  -->
  <defs>
    <style>
      .st0 {
        fill: #256187;
      }
    </style>
  </defs>
  <g>
    <path class="st0" d="M12.2,19.49c-.35.05-.68.21-1.03.27-1.69.3-6.23.4-7.75-.23-.26-.11-.45-.39-.76-.46-.69-.15-2.46-.02-2.63-1.02-.06-.35-.06-3.08.02-3.32.12-.37,1.85-.68,2.26-.48.68.35.44,2.28,1.47,2.48,1.74.2,3.38.4,5.14.34.53-.02.8-.28,1.45-.08,1.5.44,1.52,1.1,1.82,2.51ZM3.13,16.71c-.81-.75-.2-3.22-2.41-1.93-.08.11.3.68.32.99,0,.21.01,1.52,0,1.61-.08.39-.64.66-.16,1.05.54.44,1.8.26,2.5.44l.4-1.2,1.14-.61c-.54.02-1.35.04-1.78-.35ZM10.08,18.11l.68.27.37-.48c-.33-.57-1.15-.6-1.05.2Z"/>
    <path class="st0" d="M10.08,15.38v1.21c-1.56.27-3.16.2-4.71,0v-1.22c1.6.23,3.11.17,4.71,0ZM5.82,16.3v-.45h-.15v.45h.15ZM6.12,16.3l.3-.23-.23-.23-.07.46ZM6.88,16.3l-.07-.45c-.16.14-.28.23-.23.45h.3ZM9.77,16.3v-.45h-.15v.45h.15ZM7.34,16.3v-.3s-.3.23-.3.23l.3.07ZM7.79,16.45v-.45h-.15v.45h.15ZM8.4,15.99h-.3v.3h.3v-.3ZM8.86,15.99h-.3c-.05.23.07.31.23.45l.07-.45ZM9.31,16.3v-.3h-.15v.3h.15Z"/>
  </g>
  <g>
    <path class="st0" d="M7.13.06c.39-.13,1.26-.09,1.39.39.08,2.27.33,4.73,1.21,6.84s2.5,3.6,1.27,6.08c-.6,1.22-1.78,1.98-3.14,2.03-1.54.05-3.02-.69-3.65-2.14-1.09-2.49.51-3.95,1.37-6.08.58-1.43.98-3.24,1.14-4.78.06-.54-.22-2.14.4-2.33ZM8.08.36l-.91.07c-.36,2.74-.56,5.38-1.78,7.92-.5,1.04-1.1,1.52-1.23,2.87-.12,1.27.49,2.71,1.57,3.41.34.22.75.21,1.11.03.33-.16.22-.46.56-.51.79-.11.56.12.84.38.83.75,1.87-.3,2.34-.99,1.71-2.45-.84-5.06-1.54-7.4-.58-1.91-.58-3.86-.97-5.79ZM7.03,14.93h-.3v.15h.3v-.15ZM8.55,14.93h-.3v.15h.3v-.15Z"/>
    <path class="st0" d="M8.4,13.71c.06-.77-.03-1.49-.69-1.97-.08,0-.74,1.25-.77,1.36-.06.24.12.41.01.61-.22.42-.49-.4-.51-.57-.1-.91.59-1.37.92-2.05.14-.29.06-.65.35-.87.9.78,1.75,2.56.69,3.49Z"/>
  </g>
</svg>