<?xml version="1.0" encoding="UTF-8"?>
<svg id="Box_Info" xmlns="http://www.w3.org/2000/svg" version="1.1" viewBox="0 0 23.79 17.07">
  <!-- Generator: Adobe Illustrator 29.5.1, SVG Export Plug-In . SVG Version: 2.1.0 Build 141)  -->
  <defs>
    <style>
      .st0 {
        fill: #256187;
      }
    </style>
  </defs>
  <g>
    <path class="st0" d="M19.38,12.07h-.15s-.02-.15.08-.15l.08.15Z"/>
    <path class="st0" d="M18.77,14.79c.32,1.38-.75.98-1.03,1.24-.09.08-.02.5-.33.65-.07.04-1.42.34-1.61.36-1.28.17-1.15-.29-1.45-1.33-.31-.21-2.13.5-1.96-.24.02-.08.41-.37.52-.54.44-.65.56-1.39.84-1.85.15-.24.96-.44,1.06-.81.12-.44-.64-.73-.72-1.21-.25-1.64,2.76-2.84,3.77-3.74,1.19-1.05,2.67-3.07,2.74-4.68.03-.71-.66-2.2-.61-2.39.2-.74,1.22.39,1.43.67.31.42,1.58,2.69,1.6,3.09.05,1.23.25.97.43,1.83.09.45-.04.91.04,1.32.04.23.25.39.29.62.11.57-.82,3.35-1.1,4.03-.26.63-.48.98-1.07,1.35-.44.28-1.4.47-1.62.65-.37.29-.11,1.26-1.22.98ZM21.4,2.23c-.18-.34.02-1.3-.8-1.32.53,1.22.35,2.6-.22,3.78-.22.45-1.27,1.99-1.59,2.34-1.05,1.11-4.55,2.33-4.39,4.03.06.58.97.46.7,1.36-.14.47-1.03.71-1.15.9-.09.14-.04.45-.15.67-.29.56-.71,1.06-1.1,1.55l1.82-.15-.15-.45h.76s-.15-.91-.15-.91l.52.16.16-.31.23.3-.3-1.06.76.3-.12-.43.26-.03-.29-.74c.29,0,.68.03.76-.3l-.3-.3.3-.08c-.22-.3-.59-.23-.91-.23l.61-.53s-.79-.18,0-.45l-.91-.3c.75-.46,1.99-.87,2.59-1.52.21-.23.02-.41.11-.63.14-.34.63-.52.65-.95l.15.9.76-.53-.3-.15c.85-.48,1.03-1.43,1.67-2.11h-.45c.35-.34.76-.67.77-1.2l-.32-.16c.4-.36.62-.84.3-1.33-.06-.08-.23-.09-.26-.14ZM20.29,8.6c-.08.15-.13.31-.23.45-.12.3.29-.11.31-.14.13-.2.19-.47.27-.56.42-.48.46-.44.86-1.03.2-.3.69-.44.62-.9l-.31-.15c.46-.37.77-.82.76-1.44l-.3-.07c.44-.34.33-.81.23-1.29-.02-.11-.2-.62-.38-.6-.11,1.65-.43,3.29-1.52,4.6h.45c-.26.32-.53.64-.76.98,0,0-.15-.02-.15.08l.15.08ZM21.55,9.41c.4-.44.39-.44.71-.88.19-.27.6-.47.71-.83.08-.28-.07-.48-.04-.66.09-.57.4-.91.1-1.61-.64.45-.52,1.46-1.06,2.04l.6-.31c-.27.52-.72.94-1.02,1.42-.18.3-.42.96-.6,1.22-.03.04-.97.92-.43.75.64-.2.37-.56.4-.58.08-.06.31,0,.43-.1.17-.12.11-.38.2-.48ZM20.52,7.7l-.23.22.07.07.23-.22-.07-.07ZM21.89,7.7l-.23.22.07.07.23-.22-.07-.07ZM22.73,9.81c0-.47.56-.62.69-1.05.09-.3.15-.78,0-1.06l-.99,1.43h.3c-.14.79-1.07,1.19-1.52,1.67-.14.14-.04.33-.14.45s-1.02.59-.77.83c.21.2.41-.46.73-.34l.05-.39c.89.1.71-.55.89-.7.27-.24.85-.33,1.07-.76l-.3-.07ZM18.01,9.51s-.32.06,0,.15l-.3.38h.45s-.83.68-.83.68l1.82-1.06-.22-.15c.04-.55.19-.66.53-1.06l.23.45v-.67c-.06-.52-1.55.7-1.68.9-.16.23.02.32.01.38ZM19.46,9.06v.15c.1-.05.1-.1,0-.15ZM17.63,9.36v.15c.1-.05.1-.1,0-.15ZM22.19,9.51l-.53.53.07.07.53-.53-.07-.07ZM20.29,9.66c-.9-.19-1.29.8-2.13.91l.3.3-.61.3.61-.08-.76.53c.32.05,1.48-.29,1.64-.49s.03-.63.11-.73c.11-.14.3,0,.35-.04.14-.12.09-.51.49-.26v-.45ZM17.48,10.11v.15c.1-.05.1-.1,0-.15ZM20.07,10.42l-.23.22.07.07.23-.22-.07-.07ZM21.13,10.42l-.23.22.07.07.23-.22-.07-.07ZM19.61,10.87v.15c.1-.05.1-.1,0-.15ZM20.86,13.23c.06-.04.09-.25.2-.32.23-.14.54-.06.77-.31.09-.1.02-.32.13-.46.28-.38.81-.65.77-1.28-.73.21-.87.89-1.22,1.27-.29.32-.96.46-1.25.68-.23.17-.27.63-.72.61-.04.27.34.15.5.12.27-.06.59-.17.83-.32ZM17.48,11.62v.15c.1-.05.1-.1,0-.15ZM19.38,12.07c.25-.11.55-.07.46-.45l-1.51.16v.37s-.77.07-.77.07l.76.15-.38.45,1.14-.15-.3-.3.28-.02c-.19-.42-.08-.22.17-.29l.08.15c.1,0,.07-.14.08-.15ZM18.01,11.92h-.3v.15h.3v-.15ZM19.76,12.07v.15c.1-.05.1-.1,0-.15ZM19.23,14.33c.51-1.01-1.27-1.33-1.98-1.05l.13.28-.28.16c.68.09,1.21.52,1.82.76.03.01.04.13.08.14l.08-.14c.06-.04.12-.09.15-.15ZM17.1,14.18l-.15.3-.6-.23,1.74,1.44-.23-.15.25-.18-.02-.22.23.02.08-.53-1.15-.45s-.05-.09-.08-.12l-.07.12ZM17.55,16.14c.15-.17-.5-.96-.68-1.07-.28-.17-.4,0-.59-.03s-.27-.32-.4-.18l.99,1.58.15-.45.53.15ZM18.39,15.39v.15c.1-.05.1-.1,0-.15ZM16.34,16.45c0-.73-.25-.88-.91-.9l.3,1.06.15-.45.45.3ZM14.97,16.6s-.02.14.08.15c.1-.02.06-.13.08-.15.41-.49-.01-.55-.23-.91-.46-.13-.03.78.08.91ZM17.33,16.3v.15c.1-.05.1-.1,0-.15Z"/>
    <path class="st0" d="M15.12,16.6s-.15,0-.15,0c-.01-.03.06-.1.08-.15.02.05.09.12.08.15Z"/>
    <path class="st0" d="M17.1,14.18h.15s-.06.1-.08.15l-.08-.15Z"/>
    <path class="st0" d="M18.01,9.66s0-.15,0-.15c.18-.08.18.23,0,.15Z"/>
    <path class="st0" d="M20.29,8.6v-.15l.15.08c0,.09-.15.07-.15.08Z"/>
    <polygon class="st0" points="19.23 14.33 19.08 14.49 18.92 14.49 18.93 13.88 19.07 13.88 19.23 14.33"/>
    <path class="st0" d="M14.74,14.64c.1.05.1.1,0,.15v-.15Z"/>
  </g>
  <g>
    <path class="st0" d="M5.29,6.75c1.05,1.15,3.44,1.96,4.21,3.29s-.27,1.39-.44,1.99.88.76,1.06,1.06c.3.5.32,1.26.9,1.94.13.15.45.19.47.3.16,1.04-1.56.11-1.96.39-.18.31-.24,1.2-.57,1.32-.27.09-2.4-.27-2.58-.42-.2-.17-.16-.52-.24-.59-.29-.25-1.36.14-1.03-1.24-1.11.28-.85-.68-1.22-.98-.18-.14-.72-.21-1.01-.35-1.11-.55-1.36-.63-1.79-1.84C.9,11.14-.03,8.23,0,7.98c.04-.3.32-.53.37-.81.07-.42-.05-.87.04-1.32.07-.36.5-.8.53-1.11.03-.29-.14-.5-.05-.97.08-.42,1.3-2.53,1.61-2.93.2-.26,1.17-1.3,1.36-.59.07.25-.5,1.26-.57,1.68-.14.88.1,1.82.49,2.61.21.42,1.19,1.88,1.49,2.21ZM9.3,11.43c.6-.64-.38-1.72-.88-2.13-2.03-1.67-3.4-1.73-4.83-4.41-.5-.94-.76-1.92-.63-2.99.05-.42.32-.76.23-1.13-.58.32-.52.84-.72,1.26-.15.3-.44.09-.44.62,0,.45.13.76.47,1.07l-.3.07c.01.56.26,1.03.76,1.28h-.45c.14.32.51.57.65.83.1.19.15.7.3.86s1.18.36.41.57c.16.18.27.33.53.38.51.09-.02-.72.38-.76.46.76.73,1.54,1.47,2.08.61.45,1.35.62,1.87,1.16-.31.16-.63-.3-.91.15l.3.15-.3.3c.13.24.59.11.46.53-.29,0-.68-.03-.76.3l.3.3-.3.08.76.23-.29.74.26.03-.12.43.76-.3-.3,1.05.23-.3.16.31.52-.16c.13.13-.64,1.39.61.91l-.15.45,1.82.08c-.29-.34-.94-.94-1.1-1.32-.13-.3-.06-.68-.15-.84s-1.02-.42-1.16-.89c-.23-.76.27-.7.54-.99ZM3.12,7.4c-.92-1.38-1.34-2.88-1.37-4.52-.17-.02-.39.47-.41.57-.14.61-.05.96.27,1.47l-.29.27.74,1.09-.31.15c-.07.48.49.64.67.98.48.88.4.45.81.96.15.19.19.69.58.85l-.69-1.51c.06.08.31.16.38.3l.07-.07s-.38-.41-.45-.53ZM1.29,6.94l.6.53-1.06-2.04c-.31.65.02,1.01.09,1.5.04.32-.14.51.02.87.15.33.56.52.71.79.08.15-.02.44.12.57.51.48.72.51,1.12,1.09.07.1.5.32.52.3.12-.45-.39-.58-.51-.75-.15-.23-.39-.87-.55-1.13-.35-.55-.97-1.1-1.06-1.74ZM3.57,12.07c.25-.24-.67-.7-.77-.83s0-.3-.14-.45c-.33-.35-.98-.67-1.29-1.15-.22-.34-.06-.52-.16-.73-.17-.36-.51-.97-.83-1.22-.27,1.08.36,1.26.76,1.89.25.39-.54-.09-.3.3.27.45.85.58,1.21.91-.79.24.49.57.74.56l.05.39c.31-.12.52.53.73.34ZM1.98,7.7v.15c.1-.05.1-.1,0-.15ZM6.16,10.11c-.4-.38-.07-.69-.37-1.06-.19-.23-1.36-1.18-1.61-.9v.75s.23-.45.23-.45c.4.21.25.47.31.68.05.17.18.22.22.3.1.21-.68-.25-.3.15l1.77,1.11c.62-.02-.78-.52-.71-.66l.45.08ZM6.23,9.36v.15c.1-.05.1-.1,0-.15ZM1.82,9.66l-.07.07.38.38.07-.07-.38-.38ZM5.36,10.46c-.16-.21-1.53-1.04-1.78-.8v.45c.4-.26.35.14.49.26.05.04.24-.1.35.04.07.09-.05.54.11.73.07.08.94.44,1.11.48.14.03.57.11.52-.14l-.76-.38.61-.07c-.69.01-.5-.36-.65-.56ZM6.38,10.11v.15c.1-.05.1-.1,0-.15ZM2.89,10.56v.15c.1-.05.1-.1,0-.15ZM5.62,10.56v.15c.1-.05.1-.1,0-.15ZM5.93,10.72v.15c.1-.05.1-.1,0-.15ZM3.68,12.87c-.93-.67-.79-.32-1.62-1.33-.18-.22-.68-.44-.92-.67-.05.63.49.9.77,1.28.12.16.01.38.2.53.28.21,1.5.83,1.85.89.16.03.41.1.37-.14-.42.05-.5-.45-.65-.56ZM4.26,10.87v.15c.1-.05.1-.1,0-.15ZM3.19,11.17v.15c.1-.05.1-.1,0-.15ZM4.64,12.07c.13.15.2.32.45.3l-.3.3.99.16-.23-.45.76-.15-.77-.07v-.37s-1.51-.16-1.51-.16c-.09.38.2.34.46.45,0,0-.02.15.08.15l.08-.15ZM6.38,11.62v.15c.1-.05.1-.1,0-.15ZM6.16,11.92h-.3v.15h.3v-.15ZM4.1,12.07v.15c.1-.05.1-.1,0-.15ZM6.61,13.28c-.78-.2-1.74-.13-2.13.68l.45-.08v.6s-.45-.23-.45-.23l.45.31,1.83-.84-.28-.16.13-.28ZM6.76,14.03l-1.3.6.09.53h.26s-.07.21-.07.21c.43.46,1.15-.73,1.49-.96l-.53-.12.08-.25ZM7.45,14.18v.15c.1-.05.1-.1,0-.15ZM6.31,16.14l.53-.15.15.45.83-1.43c-.8-.19-1.38.38-1.52,1.13ZM5.47,15.39v.15c.1-.05.1-.1,0-.15ZM5.78,15.54v.15c.1-.05.1-.1,0-.15ZM8.13,16.6l.23-1.05c-.72.01-.86.35-.84,1.05l.15-.45h.3s.15.45.15.45ZM9.2,15.69c-.12-.13-.6.36-.61.4-.06.26,0,.49.23.65l.38-1.05ZM6.54,16.3v.15c.1-.05.1-.1,0-.15Z"/>
    <path class="st0" d="M4.64,12.07h-.15l.08-.15c.1,0,.06.13.08.15Z"/>
    <path class="st0" d="M3.12,7.4c.02.09-.03.26,0,.3l-.3-.3h.3Z"/>
    <path class="st0" d="M9.12,14.64c.1.05.1.1,0,.15v-.15Z"/>
  </g>
</svg>