<?xml version="1.0" encoding="UTF-8"?>
<svg id="Box_Info" xmlns="http://www.w3.org/2000/svg" version="1.1" viewBox="0 0 26.53 21.38">
  <!-- Generator: Adobe Illustrator 29.5.1, SVG Export Plug-In . SVG Version: 2.1.0 Build 141)  -->
  <defs>
    <style>
      .st0 {
        fill: #811010;
      }
    </style>
  </defs>
  <path class="st0" d="M12.72,5.27c-.36.19-.25.98-.38,1.35-.1.3-.18.46-.44.65-.45,0-.52-2.52-.46-2.9l-.22,2.05-.42.49-.54-.38-.82.38c-.06-.61.07-1.32,0-1.91-.04-.33.06-.3-.36-.27l-.18,2-1.09-.18.46.18.09.36-.91-.09-.72-1.73c.01,1.61-.87,2.64-1.73.73l-.63.36-1-2-.09.73c-.76.07-.91.15-1.63-.27-.55-.32.43,0,.18-.36-.13-.2-.39-.35-.54-.55l.63.28.2-.37.34.17-.27-.45c.24-.39.57-.17.9-.09l.38-.9.36.08.18.46.1-.55.37.16c.15-.45.97-.2,1.58-.36.82-.21,2.09-.79,2.82-1.06.48-.18,1-.22,1.43-.55l.34.35c.29-.7.44-.36.6-.43.06-.02-.01-.45.4-.11v-.55s.82.34.82.34L12.63,0c.34.49,1.25.83.82,0l1.27.36-.54.36c1.48-.33,1.51.56,2.23,1.22.15.14.4.14.56.26.21.15.27.49.42.53.45.12.96-.2,1.38-.15s.99.59,1.4.79c.16.08.41-.09.51-.05.05.02.52.7.76.77l-.36.45c.64-.19.62.32,1.09.27l-.54.28.37.54v-.54s.54,0,.54,0l-.17.83.35.16-.91,1,1.27-.73c.32.63-.06.72-.18,1.27l.72-.54c-.3.82.21,1.13.38,1.72l-.55.64c.63,0,1.81,1.1,1.09,1.63,1.09-.29.89,1.16,1.63,1.73l-.36.45.54.09c-.22.63-.17,1.35.19,1.91l-.55.18.55.45-.55-.27.09.54c-.66-.16-2,.09-2.1-.72-.75.44-1.15.19-1.82-.3l.55-1.16h-1.01s.1.36.1.36h-.62s-.21-.37-.21-.37l.1-.9-.27.37-.82-.37.66-.69,2.42-1.48c-1.52.28-2.17,1.5-3.91,1.23-.1-.02,0-.47-.45-.14l.36-.54c-1.64.5-.23-.99.18-1.45l-1.27.54c-.21-.15-.01-1.51-.45-1.27-1.19,1.94-2.22.78-2.46-.91l-.18.55h-1.09s0-1.09,0-1.09l-.47.53-.62-.17v-2.91ZM13.17,1.45v.18c.12-.06.12-.12,0-.18ZM8.72,2.54v-.72h-.18v.72h.18ZM11.44,2.91v-.36h-.18v.36h.18ZM5,2.73v.18c.12-.06.12-.12,0-.18ZM11.36,3.27v.18c.12-.06.12-.12,0-.18ZM11.36,3.82v.18c.12-.06.12-.12,0-.18ZM10.27,4.54v.18c.12-.06.12-.12,0-.18ZM10.35,5.45v-.36h-.18v.36h.18ZM5.09,5.63v-.36h-.18v.36h.18ZM13.63,5.45h-.36v.18h.36v-.18ZM14.44,5.63v.18c.12-.06.12-.12,0-.18ZM13.17,6.18v.18c.12-.06.12-.12,0-.18ZM21.89,6.18v.18c.12-.06.12-.12,0-.18ZM13.99,7.08v-.36h-.18v.36h.18ZM16.9,6.72h-.36v.18h.36v-.18ZM22.8,6.9v.18c.12-.06.12-.12,0-.18ZM23.26,7.81h-.36s0,.36,0,.36l.36-.36ZM22.26,7.99v.18c.12-.06.12-.12,0-.18ZM21.44,8.36h-.36s-.18.54-.18.54c.33.06.6-.2.54-.54ZM23.26,8.72v-.36h-.18v.36h.18ZM20.53,9.26l-.09-.36-.27.36h.36ZM15.72,9.45v.18c.12-.06.12-.12,0-.18ZM22.71,9.81c-.34-.07-.49.23-.72.45.19.11.83-.37.72-.45ZM21.35,10.54v.18c.12-.06.12-.12,0-.18ZM19.53,11.44v.18c.12-.06.12-.12,0-.18ZM23.26,12.35h-.36s0,.36,0,.36l.36-.36ZM22.62,12.53v.18c.12-.06.12-.12,0-.18ZM25.62,13.08h-.36v.18h.36v-.18ZM24.17,13.44c-.36.01-1.11.17-1.27.54l1.27-.54ZM24.62,14.17v.18c.12-.06.12-.12,0-.18ZM24.62,15.44v.18c.12-.06.12-.12,0-.18Z"/>
  <path class="st0" d="M6.36,16.17c.02-.06.15-.12.18-.18-.06.07-.12.13-.18.18Z"/>
  <path class="st0" d="M6.72,15.62c.04-.08.07-.17.18-.18-.05.07-.13.12-.18.18Z"/>
  <path class="st0" d="M10.72,13.62c-.27.52-.78.98-.73,1.63l1.44-2.1,1.45.48-.53,1.62h.72c.15.62-.74.15-.09.72l.63-1.18-.9.27.39-1.07,1.06.17-2,5.45c.42.07.57-.36.71-.65.63-1.35,1.14-3.01,1.67-4.41,1.16.15,2.29-.44,1.98,1.25l-.54-.18v.55s-.18-.36-.18-.36c-.56-.23-.64,1.08-.73,1.45l.36.09-1.27,2.82,2-3.99c.43.11.2.78-.16.8l.16,1.19.73-1.81c.49.25-.05.53.64.72l.07-.44h.38c-.17-.98-1.44-.77-.99-1.74.56.42,1.64,0,1.76.49l.32-.13-.54,2.91,1.08-2.82,1.02-.06.18.35.35-.19.09.72c.35.05.04-.37.29-.56.68-.55.77.47.82.54.02.04.61-.19.69.32s-.96.88-.71,1.16l1.09-.91.18,1.64.54-.11c.39.38.33.73.18,1.2l.54.09-.37.99-.27-.54-.18.72-.73-.54c-.71,1.09-2.37.89-3.54,1.09l-.09-.91c-.19.7-.56.78-1.27.93-.44.09-1.02.28-1.09-.2-3.7,1.07-10.79-1.92-12.96-5.21-.37-.56-1.29-1.78-.94-2.33l-.53.09c-.32-.91-.78-1.67-1.12-2.58-.05-.13-.29-.15-.3-.18-.1-.28.13-1.87.1-2.25-.06-.79-.94-1.46-1.6-1.81,1.01-.57,3.18-.06,2.54,1.36.95.09,1.12-.97,1.38-1.07.93-.34.88.73,1.68.73l.11,1.44c.08.14,2.02-.15,1.91.9l-.54.36c.38-.26,1.22.35,1-.36.44.25.06.61.18.9.1.24.65.56.82.82-.65.57-.92,1.75-1.42,2.57-.25.42-.53.65-.76.97l-.36-.18c-.03.11.03.32,0,.36-.16.21-.6.43-.72.82.12.11.44-.19.54-.27-.08.23-.2.47-.18.73,1.42-1.27,2.21-3.05,3.12-4.7.12-.07.96.12,1.12.2.34.17.25.44.3.51-.56.37-1.27-.86-1.45.09.15.07,1.33.76,1.45.64ZM4.66,8.31l.06-.5c-.47.18-.62.61-.54,1.09l.48-.59ZM4.18,9.44v-.36h-.18v.36h.18ZM5.09,9.63v-.36h-.18v.36h.18ZM6.9,10.17l-.45-.72-.64.91.64-.54.45.36ZM5.81,9.63h-.36v.18h.36v-.18ZM3.91,9.81v.18c.12-.06.12-.12,0-.18ZM7.18,9.81v.18c.12-.06.12-.12,0-.18ZM3.63,11.8l.18-1.45-.9,1.36v.27c.24-.35.7-.15.72-.18ZM5.63,10.54c-.35.15-.6.73-.64,1.09.24-.31.63-.68.64-1.09ZM4.72,10.72h-.36v.18h.36v-.18ZM2.54,11.44v-.36h-.18v.36h.18ZM4.27,11.08v.18c.12-.06.12-.12,0-.18ZM7.99,11.26c-.15-.15-.65.29-.73.45-.21.44.56.04.54.36-.94.33-.45,1.15-.09.27l.09.55c.5.12.77-.72.42-.91l-.51-.18.28-.54ZM4.72,12.9l.18-1.09-.52.67.34.42ZM2.63,11.99v.18c.12-.06.12-.12,0-.18ZM6.27,11.99v.18c.12-.06.12-.12,0-.18ZM6.63,12.17v.18c.12-.06.12-.12,0-.18ZM3.18,12.71v.18c.12-.06.12-.12,0-.18ZM3.64,13.8c.07.09.48-.32.36-.54-.07-.09-.48.32-.36.54ZM4.18,14.35c.35-.09.41-.4.36-.73-.09-.19-.43.49-.36.73ZM5.99,14.17v-.54h-.18v.54h.18ZM9.72,13.62v.18c.12-.06.12-.12,0-.18ZM12.26,13.8v.18c.12-.06.12-.12,0-.18ZM9.63,14.53c.07.09.48-.32.36-.54-.07-.09-.48.32-.36.54ZM5.36,14.17v.18c.12-.06.12-.12,0-.18ZM12.17,14.35h-.36s0,.54,0,.54h.18s.18-.54.18-.54ZM6.18,14.71l-.5.09.09.23c-.37.07-.58.57-.6.94l1-1.27ZM4.72,15.44v-.36h-.18v.36h.18ZM11.54,15.26v.18c.12-.06.12-.12,0-.18ZM6.72,17.62c.6-.5,1.01-1.45,1.27-2.18-.61.52-1.06,1.42-1.27,2.18ZM15.08,15.44c-.34-.2-.96.67-.18.54l-.37.28.19.81c.61-.28.17-1.15.36-1.63ZM5.9,15.62v.18c.12-.06.12-.12,0-.18ZM11.44,15.98v-.36h-.18v.36h.18ZM12.08,15.62v.18c.12-.06.12-.12,0-.18ZM8.54,16.35l.09-.54-.46.45.36.09ZM11.99,16.53v-.54s-.18,0-.18,0l-.18.54h.36ZM20.8,16.17v.18c.12-.06.12-.12,0-.18ZM14.35,16.71v-.36h-.18v.36h.18ZM17.26,19.25c.66-.69,1.1-1.95,1.27-2.91-.68.8-.81,1.97-1.27,2.91ZM8.17,16.53c-.08-.11-.57.53-.45.72.22-.23.53-.38.45-.72ZM9.45,16.53h-.54s0,.91,0,.91c.57.05.59-.47.54-.91ZM11.44,17.44v-.54h-.18v.54h.18ZM14.54,16.89h-.36s-.18.91-.18.91c.13.18.5-.73.54-.91ZM20.99,16.89v.18c.12-.06.12-.12,0-.18ZM8.54,17.07l-.09.54.27-.27v-.27h-.18ZM8.27,17.8v.18c.12-.06.12-.12,0-.18ZM13.99,18.89v-.72s-.18,0-.18,0l-.18.72h.36ZM19.62,18.53v-.36h-.18v.36h.18ZM17.99,19.25c.34-.13.56-.58.54-.91-.34.13-.56.58-.54.91ZM15.54,18.53v.18c.12-.06.12-.12,0-.18ZM16.35,19.07c.07.09.48-.32.36-.54-.07-.09-.48.32-.36.54ZM16.17,18.71h-.36v.18h.36v-.18ZM15.35,18.89v.18c.12-.06.12-.12,0-.18ZM18.99,18.89v.18c.12-.06.12-.12,0-.18ZM20.26,19.07v.18c.12-.06.12-.12,0-.18ZM13.63,19.62v-.36h-.18v.36h.18ZM18.9,19.44h-.36v.18h.36v-.18ZM16.99,19.62v.18c.12-.06.12-.12,0-.18ZM13.35,19.8v.18c.12-.06.12-.12,0-.18ZM17.44,20.7c.05-.06.23-.81.18-.91-.24-.1-.43.76-.36.91.06,0,.15.02.18,0ZM16.54,20.52c.07.09.48-.32.36-.54-.07-.09-.48.32-.36.54ZM18.35,20.7s.21-.66.18-.72c-.26-.05-.31.45-.36.72.06,0,.15.03.18,0ZM18.89,20.52v-.36h-.18v.36h.18ZM15.54,20.34v.18c.12-.06.12-.12,0-.18Z"/>
  <path class="st0" d="M10.72,12.9c.18.2.58-.36,0,.73v-.73Z"/>
  <path class="st0" d="M6.54,15.98c.04-.08-.04-.31,0-.36.02-.03.16.03.18,0-.06.14-.05.21-.18.36Z"/>
  <rect class="st0" x="13.99" y="9.81" width=".73" height=".18"/>
  <rect class="st0" x="15.45" y="16.53" width=".18" height=".36"/>
  <rect class="st0" x="25.62" y="16.35" width=".36" height=".18"/>
  <path class="st0" d="M13.72,9.63c.12.06.12.12,0,.18v-.18Z"/>
  <path class="st0" d="M1.18,4.54c.12.06.12.12,0,.18v-.18Z"/>
  <path class="st0" d="M23.35,6.36c.12.06.12.12,0,.18v-.18Z"/>
</svg>