<?xml version="1.0" encoding="UTF-8"?>
<svg id="Box_Info" xmlns="http://www.w3.org/2000/svg" version="1.1" viewBox="0 0 20.35 19.13">
  <!-- Generator: Adobe Illustrator 29.5.1, SVG Export Plug-In . SVG Version: 2.1.0 Build 141)  -->
  <defs>
    <style>
      .st0 {
        fill: #256187;
      }
    </style>
  </defs>
  <path class="st0" d="M13.68,15.99c.06,0,.28.22.46.15-.62-2.29-.19-1.04.85-.77.29.08.22-.07.21-.28L3.57,6.64c-.26.19.06.32.18.43.3.27.54.57.78.78,1.26,1.1,6.72,4.52,7.21,5.47.27.51.2,1.15.88,1.54-1.01-.65-3.78-1.66-4.49-2.48-.33-.38-.28-.98-.68-1.44-.57-.66-2.51-1.62-3.28-1.14-.33.2-.98,1.98-.98,2.35v4.6c3.3-.23,6.57-.76,9.81-1.36.58.01.51.25.68.61-1.54.07-3.62.57-5.25.75-1.37.15-4.21,0-5.29.63-.66.39-1.43,1.63-2.47.89-.69-.49.1-.43.23-.53.22-.17.09-.5.23-.69.13-.17.5-.07.54-.24.24-.82-.39-2.66-.46-3.61-.08-1.02-.07-2.26.23-3.23.19-.6.83-1.34.82-1.88,0-1.1-2.12-.62-2.26-1.23-.08-.34.85-1.37.87-1.67S0,3.94,0,3.85c-.01-.4,1.32.25,1.68.16.44-.11,1.07-1.13,1.44-1.1s1.09,1.78,1.64,1.75c.35-.02,1.25-1.09,1.66-1.37.49-.33,1.08-.61,1.64-.79,1.04-.33,4.5-.52,4.92-.82.16-.11.06-.44.17-.62.15-.27.74-.42.76-1.06,1.4,1.02.3,1.82.11,2.82-.22,1.2.72,4.63.98,6.05.2,1.09.28,3.06.57,3.96.14.44.67.51.78.74.13.27-.26.75,0,1.21l3.81,3.16c.53.36-.12,1.29-.6,1.19l-4.3-2.83c-.49-.35-.78.46-1.32.28-.34-.11-.19-.46-.25-.59ZM13.3,3.03c-1.1.45-6.4,1.61-6.41,3.08,0,.14.93,1.88,1.08,2.04.9.96,2,.67,2.81,1.13.21.12,1.2,1.03,1.45,1.27.38.35,2.25,2.56,2.43,2.56.16,0,.23-.35.23-.52.03-1.92-.71-5.95-1.12-7.95-.06-.3-.24-1.58-.48-1.62ZM2.73,5.28s.79.42.84.42c1.16-.07-.13-2.38-.92-1.78s.66.53.84,1.06c-.24-.03-1.07-.06-.76.3ZM2.28,6.64c-.38-.29-1.25-1.57-1.35-.35-.03.3,1.42.88,1.7.81.46-.1.43-1.01-.28-1.21-.47-.14,0,.57-.07.75ZM13.37,12.52c-.67-.3-.58.65,0,.15,0,0,0-.14,0-.15ZM13.98,12.82c-.15.02-.56-.04-.61,0-.31.27.47.54.61,0ZM14.44,13.12c-.28-.04-.53,0-.61.3.28.04.53,0,.61-.3ZM14.89,13.42c-.34-.06-.64.05-.61.45l.61-.45Z"/>
  <path class="st0" d="M12.16,13.57c.07-.09.47.44.38.6-.14-.13-.51-.43-.38-.6Z"/>
  <path class="st0" d="M13.22,14.63h-.3s0-.45,0-.45c.21-.05.18.25.3.45Z"/>
  <rect class="st0" x="13.37" y="14.48" width=".15" height=".6"/>
</svg>