<?xml version="1.0" encoding="UTF-8"?>
<svg id="Box_Info" xmlns="http://www.w3.org/2000/svg" version="1.1" viewBox="0 0 16.19 19.87">
  <!-- Generator: Adobe Illustrator 29.5.1, SVG Export Plug-In . SVG Version: 2.1.0 Build 141)  -->
  <defs>
    <style>
      .st0 {
        fill: #256187;
      }
    </style>
  </defs>
  <path class="st0" d="M8.06,0c2.46,1.28,5.07,1.71,7.81,2.01.39.28.34,5.56.28,6.37-.41,5.01-3.84,9.01-7.97,11.49-.82.04-4.05-3.05-4.7-3.8C-.15,11.92-.34,7.39.27,2.08c2.68-.49,5.38-.65,7.79-2.08ZM14.49,9.54c.31-2.07.39-4.15.08-6.23l-6.47-1.67v7.9h6.38ZM8.11,9.69c-2-.08-4.01-.28-6.01,0-.24.03-.23-.09-.23.23,0,.53.37,1.49.59,2,.78,1.89,2.58,3.97,4.13,5.29.42.36.99.89,1.52.99v-8.51Z"/>
</svg>