<?xml version="1.0" encoding="UTF-8"?>
<svg id="Box_Info" xmlns="http://www.w3.org/2000/svg" version="1.1" viewBox="0 0 21.42 18.61">
  <!-- Generator: Adobe Illustrator 29.5.1, SVG Export Plug-In . SVG Version: 2.1.0 Build 141)  -->
  <defs>
    <style>
      .st0 {
        fill: #811010;
      }
    </style>
  </defs>
  <path class="st0" d="M7.33,2.83c1.18-1.02,1.5.7.77.82-.17.03-.39-.13-.59-.12-.5.04-.89.86-.82,1.33.72.14.95.78,1.35,1.15,3.72,3.47,8.71,7.01,12,10.71.16.18,1.5,1.76,1.37,1.88-1.74-.66-3.2-1.72-4.63-2.87-3.58-2.88-6.87-6.29-10.49-9.05-.97-.74-.87-1.17-2.14,0,.6.86-.11,1.54-.9.91-.59-.95,1.39-1.53,1.59-2.32L.12,1.5l-.12-.42C.37.27,1.12-.41,1.95.3c.34.29.37.63.61.9.53.57,2.7,2.77,3.31,2.92.52.13,1.13-1,1.46-1.28Z"/>
</svg>