<?xml version="1.0" encoding="UTF-8"?>
<svg id="Box_Info" xmlns="http://www.w3.org/2000/svg" version="1.1" viewBox="0 0 25.55 16.21">
  <!-- Generator: Adobe Illustrator 29.5.1, SVG Export Plug-In . SVG Version: 2.1.0 Build 141)  -->
  <defs>
    <style>
      .st0 {
        fill: #256187;
      }
    </style>
  </defs>
  <path class="st0" d="M17.56,6.09l-9.48,5.3-.13.41.89,1.85c-.01.33-.28.4-.5.55-.59.42-3.61,1.85-4.28,1.93C-.02,16.68-1.29,14.15,1.48,11.33c.49-.5,4.17-2.93,4.62-2.67l1.37,1.83,13.06-7.41c.44-1.03,2.38-3.54,3.65-3.01.32.13,1.28,1.79,1.34,2.15.37,2.12-3.29,1.67-4.38,1.92-.98.22-2.55,1.59-3.59,1.95ZM23.7.94c-.84-.41-2.24,1.47-1.64,2.16.79.48,1.74.51,2.43-.18.36-.33-.64-1.91-.78-1.98Z"/>
</svg>