<?xml version="1.0" encoding="UTF-8"?>
<svg id="Box_Info" xmlns="http://www.w3.org/2000/svg" version="1.1" viewBox="0 0 22.73 18.88">
  <!-- Generator: Adobe Illustrator 29.5.1, SVG Export Plug-In . SVG Version: 2.1.0 Build 141)  -->
  <defs>
    <style>
      .st0 {
        fill: #256187;
      }
    </style>
  </defs>
  <path class="st0" d="M18.19,7.41c1.33,1.07,3.25,3.19,3.98,4.76.94,2.02.64,2.9-.61,4.66-2,2.82-4.71,2.27-7.61,1.13s-7.92-5.05-8.16-8.42c-.15-2.1,2.27-5.5,4.7-5.07-.32,1.37-1.64,2.15-1.52,3.72.17,2.33,4.41,5.35,6.39,6.23,1.51.66,3.05.96,4.71.84-.07-2.01-1.62-3.43-2.97-4.71-.67-.73-2.12-1.33-2.73-1.98-.17-.18-.02-.19.15-.15.34.07.81.37,1.13.55,2.14,1.22,4.13,3.33,4.88,5.69.35.34.6-.94.61-1.15.09-2.6-4.56-5.67-6.49-7.03l-.35-.03c-.38,1.57-1.13,3.95-2.21,5.16-.19.21-.12.12-.32.03-.47-.21-2.18-2.33-2.19-2.84,0-.59.8-2.23,1-2.97.14-.53.76-3,.13-3.18-.16-.05-.97.2-1.2.29-2.87,1.03-5.8,5.69-6.28,8.61-.07.43-.34,2.19-.02,2.42,1.22-.11,2.26-.82,3.27-1.42.71.79,1.56,1.63,2.21,2.47.1.13.2.16.15.38-1.83,1-3.25,2.21-5.42,1.25C1.73,15.91.03,14.21,0,12.29c-.03-1.57,1.51-5.22,2.37-6.59C3.83,3.36,7.74-.79,10.8.13c.4.12,2.28,1.44,2.63,1.78,1.03,1,.85,2.21,1.24,3.47,1.14.62,2.51,1.22,3.52,2.03ZM9.4,1.46C5.38,1.8.8,8.91,1.59,12.68c.13.6.87,1.78,1,.68.54-4.55,2.31-8.53,6.58-10.74.29-.15,1.43-.49,1.47-.66.11-.46-.94-.52-1.24-.49Z"/>
</svg>