<?xml version="1.0" encoding="UTF-8"?>
<svg id="Box_Info" xmlns="http://www.w3.org/2000/svg" version="1.1" viewBox="0 0 27.84 15.89">
  <!-- Generator: Adobe Illustrator 29.5.1, SVG Export Plug-In . SVG Version: 2.1.0 Build 141)  -->
  <defs>
    <style>
      .st0 {
        fill: #256187;
      }
    </style>
  </defs>
  <path class="st0" d="M27.84.3c-.43.87-.4,2.43-.31,3.42.05.53.55,1.07.07,1.44-1.25.33-1.04-3.55-.83-4.25l-.61.26c-.27.88-.02,1.48,0,2.24.02.69-.06,1.46,0,2.13.05.52.32,1,.32,1.52s-.3.93-.32,1.44c-.95-.27-2.04.3-3.03.54-.33.08-.68.02-.96.1s-.66.74-1.02.51c-.73-.46.22-1.96.25-2.62.02-.41-.71-4-.88-4.14l-.59-.02.15,10.64c-.33.03-1.23-.05-1.35-.4-.11-.31.27-2.06.29-2.56.06-1.32-.16-2.2-.61-3.42-.32-.05-.25-.02-.34.19-.79,1.82-.85,4.38-1.03,6.34-.37.02-1.53-.04-1.65-.4-.02-3.17.77-6.31.51-9.48-1.15.4,0,2.48-.57,3.01-.07.06-.29,0-.37.06-.3.21-1.2,6.22-1.52,7.23-.17.55-.43,1.03-.88,1.4l-.15-.3-.37.7-1.04-.12c-.74-.47.65-4.24.73-5.07.2-2.04-.35-4.21.15-6.15l-1.67.15c-.11.09.09,1.67.07,2-.08,1.05-.48,2.6-.76,3.62-.16.57-.03,1.7-.99,1.47-.63-.15-.5-1.9-.45-2.45.14-1.46.59-1.95,1.18-3.07.09-.16.54-1.5.49-1.56-1.09.34-1.54-.17-2.05,1.07-.74,1.81-1.12,4.45-1.79,5.96-.04.1-1.04,1.7-1.1,1.79-.3.39-.7.36-.69,1.2-1.38.05-.5-.76-.23-1.37.11-.24.06-.52.17-.74s.58-.51.68-.84c-.62-.61-1.6-.07-2.31-.11-.49-.03-.91-.39-1.39-.41-.45.12-.17,1.4-.07,1.73.16.54.83.9.74,1.23-.2.74-1.29-.24-1.48-.64-.66-1.36.47-2.49.69-3.65.29-1.5.07-2.99.04-4.5l-.31-.1v-.3c.71.24.66-.79,1.01,0,2.03.08,4.03-.12,6.05-.3l.09-.47c.58-.1.04.45.53.46.44.01.95-.24,1.44-.17v-.44c.42-.17.31.4.53.42l1.76-.27v-.61c.43-.08.28.15.31.44.07.04.14.02.22.02.33.02,2.32-.31,2.44-.47.08-.1.06-.32.07-.46l.3.11v.23c.55.51.69-.74,1.05-.48.02.02-.02.26.11.29.22.05,2.67-.47,2.86-.6l.09-.63.4.47c.58-.07.77-.15.66-.77l.38.46c.15-.16.31-.31.53-.38,1.32-.46,2.91-.59,4.26-.98l-.15-.45.53.45c.15-.2.69-.35.79-.49.04-.05-.14-.31.12-.42l.84.3ZM17.96,3.34h-.3v.15h.3v-.15ZM14.92,3.95l-2.18.45c-.57.17.73,1.06,1.02,1.05l1.15-1.51ZM13.47,9.42v.15c.1-.05.1-.1,0-.15ZM12.94,11.24l.46-1.52c-.23.1-.51.65-.58.87-.04.13-.16.69.12.65ZM8.53,11.54c.82-.15.63-1.28.07-1.67l-.07,1.67ZM12.79,11.7v-.3h-.15v.3h.15Z"/>
</svg>